<?xml version="1.0"?>
<svg width="500" height="500" xmlns="http://www.w3.org/2000/svg" xmlns:svg="http://www.w3.org/2000/svg">
 <!-- Created with SVG-edit - https://github.com/SVG-Edit/svgedit-->
 <g class="layer">
  <title>Layer 1</title>
  <circle cx="250" cy="250" fill="#ff0000" fill-opacity="0" id="svg_1" r="250" stroke="#000000" stroke-width="0"/>
  <circle cx="69.5" cy="284.5" fill="#567f3d" id="svg_42" r="65.09" stroke="#000000" stroke-width="0"/>
  <circle cx="74.5" cy="203.5" fill="#567f3d" id="svg_43" r="65.09" stroke="#000000" stroke-width="0" transform="matrix(1 0 0 1 0 0)"/>
  <circle cx="831.5" cy="432.5" fill="#567f3d" id="svg_44" r="65.09" stroke="#000000" stroke-width="0" transform="matrix(1 0 0 1 0 0)"/>
  <circle cx="109.5" cy="130.5" fill="#567f3d" id="svg_45" r="65.09" stroke="#000000" stroke-width="0" transform="matrix(1 0 0 1 0 0)"/>
  <circle cx="260" cy="68" fill="#567f3d" id="svg_2" r="66.09" stroke="#000000" stroke-width="0" transform="matrix(1 0 0 1 0 0)"/>
  <circle cx="335" cy="89.5" fill="#567f3d" id="svg_4" r="65.59" stroke="#000000" stroke-width="0"/>
  <circle cx="401" cy="144.5" fill="#567f3d" id="svg_5" r="62.09" stroke="#000000" stroke-width="0" transform="matrix(1 0 0 1 0 0)"/>
  <circle cx="431.5" cy="230" fill="#567f3d" id="svg_6" r="64.09" stroke="#000000" stroke-width="0"/>
  <circle cx="425" cy="321" fill="#567f3d" id="svg_7" r="58.59" stroke="#000000" stroke-width="0"/>
  <circle cx="379.5" cy="383" fill="#567f3d" id="svg_8" r="60.59" stroke="#000000" stroke-width="0" transform="matrix(1 0 0 1 0 0)"/>
  <circle cx="309.5" cy="422.5" fill="#567f3d" id="svg_9" r="64.59" stroke="#000000" stroke-width="0" transform="matrix(1 0 0 1 0 0)"/>
  <circle cx="231" cy="433" fill="#567f3d" id="svg_10" r="62.59" stroke="#000000" stroke-width="0" transform="matrix(1 0 0 1 0 0)"/>
  <circle cx="157.5" cy="407.5" fill="#567f3d" id="svg_11" r="65.09" stroke="#000000" stroke-width="0" transform="matrix(1 0 0 1 0 0)"/>
  <circle cx="102" cy="352" fill="#567f3d" id="svg_12" r="68.09" stroke="#000000" stroke-width="0" transform="matrix(1 0 0 1 0 0)"/>
  <circle cx="174" cy="81.5" fill="#567f3d" id="svg_13" r="65.09" stroke="#000000" stroke-width="0" transform="matrix(1 0 0 1 0 0)"/>
  <circle cx="735.5" cy="249.5" fill="#619145" id="svg_14" r="51.09" stroke="#000000" stroke-width="0"/>
  <circle cx="703" cy="396" fill="#7ead5f" id="svg_15" r="41.59" stroke="#000000" stroke-width="0"/>
  <circle cx="891" cy="337.5" fill="#619145" id="svg_16" r="47.59" stroke="#000000" stroke-width="0"/>
  <circle cx="204.5" cy="122.5" fill="#619145" id="svg_17" r="47.59" stroke="#000000" stroke-width="0"/>
  <circle cx="278.5" cy="120.5" fill="#619145" id="svg_18" r="47.59" stroke="#000000" stroke-width="0" transform="matrix(1 0 0 1 0 0)"/>
  <circle cx="736.5" cy="256.5" fill="#619145" id="svg_19" r="47.59" stroke="#000000" stroke-width="0" transform="matrix(1 0 0 1 0 0)"/>
  <circle cx="342.5" cy="148.5" fill="#619145" id="svg_20" r="47.59" stroke="#000000" stroke-width="0"/>
  <circle cx="386.5" cy="208.5" fill="#619145" id="svg_21" r="47.59" stroke="#000000" stroke-width="0"/>
  <circle cx="379.5" cy="280.5" fill="#619145" id="svg_22" r="47.59" stroke="#000000" stroke-width="0"/>
  <circle cx="344.5" cy="335.5" fill="#619145" id="svg_23" r="47.59" stroke="#000000" stroke-width="0"/>
  <circle cx="287.5" cy="376.5" fill="#619145" id="svg_24" r="47.59" stroke="#000000" stroke-width="0"/>
  <circle cx="232.5" cy="384.5" fill="#619145" id="svg_25" r="47.59" stroke="#000000" stroke-width="0"/>
  <circle cx="170.5" cy="351.5" fill="#619145" id="svg_26" r="47.59" stroke="#000000" stroke-width="0"/>
  <circle cx="130.5" cy="292.5" fill="#619145" id="svg_27" r="47.59" stroke="#000000" stroke-width="0"/>
  <circle cx="120.5" cy="228.5" fill="#619145" id="svg_28" r="47.59" stroke="#000000" stroke-width="0" transform="matrix(1 0 0 1 0 0)"/>
  <circle cx="148.5" cy="165.5" fill="#619145" id="svg_29" r="47.59" stroke="#000000" stroke-width="0" transform="matrix(1 0 0 1 0 0)"/>
  <circle cx="237.5" cy="179.5" fill="#7ead5f" id="svg_30" r="41.59" stroke="#000000" stroke-width="0" transform="matrix(1 0 0 1 0 0)"/>
  <circle cx="289.5" cy="188.5" fill="#7ead5f" id="svg_31" r="41.59" stroke="#000000" stroke-width="0" transform="matrix(1 0 0 1 0 0)"/>
  <circle cx="324.5" cy="227.5" fill="#7ead5f" id="svg_32" r="41.59" stroke="#000000" stroke-width="0" transform="matrix(1 0 0 1 0 0)"/>
  <circle cx="327.5" cy="281.5" fill="#7ead5f" id="svg_34" r="41.59" stroke="#000000" stroke-width="0" transform="matrix(1 0 0 1 0 0)"/>
  <circle cx="282.5" cy="314.5" fill="#7ead5f" id="svg_35" r="41.59" stroke="#000000" stroke-width="0" transform="matrix(1 0 0 1 0 0)"/>
  <circle cx="221.5" cy="317.5" fill="#7ead5f" id="svg_37" r="41.59" stroke="#000000" stroke-width="0" transform="matrix(1 0 0 1 0 0)"/>
  <circle cx="179.5" cy="269.5" fill="#7ead5f" id="svg_38" r="41.59" stroke="#000000" stroke-width="0" transform="matrix(1 0 0 1 0 0)"/>
  <circle cx="191.5" cy="204.5" fill="#7ead5f" id="svg_39" r="41.59" stroke="#000000" stroke-width="0" transform="matrix(1 0 0 1 0 0)"/>
  <circle cx="253.5" cy="253" fill="#7ead5f" id="svg_41" r="48.59" stroke="#000000" stroke-width="0"/>
 </g>
</svg>