<?xml version="1.0"?>
<svg viewBox="0 0 300 300" xmlns="http://www.w3.org/2000/svg" xmlns:svg="http://www.w3.org/2000/svg">
 <!-- Created with SVG-edit - https://github.com/SVG-Edit/svgedit-->
 <g class="layer">
  <title>Layer 1</title>
  <ellipse cx="150" cy="150" fill="#ffc878" id="svg_2" rx="130" ry="130" stroke="#ffffff" stroke-linecap="round" stroke-width="0" transform="matrix(1 0 0 1 0 0)"/>
  <line fill="none" id="svg_1" stroke="#424242" stroke-linecap="round" stroke-width="10" transform="rotate(45 100.00000000000006,104.99999999999999) " x1="65" x2="135" y1="105" y2="105"/>
  <line fill="none" id="svg_3" stroke="#424242" stroke-linecap="round" stroke-width="10" transform="rotate(45 100.00000000000006,104.99999999999999) " x1="100" x2="100" y1="70" y2="140"/>
  <line fill="none" id="svg_5" stroke="#424242" stroke-linecap="round" stroke-width="10" transform="rotate(45 200.00000000000006,104.99999999999999) " x1="165" x2="235" y1="105" y2="105"/>
  <line fill="none" id="svg_6" stroke="#424242" stroke-linecap="round" stroke-width="10" transform="rotate(45 200.00000000000006,104.99999999999999) " x1="200" x2="200" y1="70" y2="140"/>
  <ellipse cx="153.37" cy="202.37" fill="none" id="svg_25" rx="56" ry="5.5" stroke="#424242" stroke-linecap="round" stroke-width="14"/>
  <path d="m100,132q1.5,3.8 10,15a12.8,12.8 0 1 1 -20,0q8.5,-11.2 10,-15z" fill="#007fff" id="svg_4" stroke="red" stroke-width="0" transform="matrix(1 0 0 1 0 0)"/>
  <path d="m199.72,132.33q1.5,3.8 10,15a12.8,12.8 0 1 1 -20,0q8.5,-11.2 10,-15z" fill="#007fff" id="svg_7" stroke="red" stroke-width="0"/>
 </g>
</svg>