<?xml version="1.0"?>
<svg width="500" height="500" xmlns="http://www.w3.org/2000/svg" xmlns:svg="http://www.w3.org/2000/svg">
 <!-- Created with SVG-edit - https://github.com/SVG-Edit/svgedit-->
 <g class="layer">
  <title>Layer 1</title>
  <rect fill="#652a1f" height="17" id="svg_2" rx="1" ry="1" stroke="#000000" stroke-linecap="round" stroke-width="3" width="163.8" x="197.2" y="207"/>
  <path fill="none" id="svg_5" stroke="#191919"/>
  <polygon cx="86.5" cy="296" edge="16.51" fill="#3e5163" id="svg_7" orient="x" points="177.45157471299171,215.5546417236328 187.48412171006203,201.6513671875 203.83182373642921,206.87843322753906 203.90270081162453,224.0122833251953 187.59880676865578,229.37442016601562 177.45157471299171,215.5546417236328 " shape="regularPoly" sides="5" stroke="#000000" stroke-width="3"/>
  <polygon cx="156.5" cy="44" edge="19.7" fill="#3e5163" id="svg_3" orient="x" points="310.6377807557583,194.16627502441406 319.4866577088833,207.22499084472656 301.7889343202114,207.22499084472656 310.6377807557583,194.16627502441406 " shape="regularPoly" sides="3" stroke="#000000" stroke-width="3"/>
  <polygon cx="156.5" cy="44" edge="19.7" fill="#3e5163" id="svg_12" orient="x" points="348.66591796278954,193.90541076660156 357.51479491591454,206.96412658691406 339.81704100966454,206.96412658691406 348.66591796278954,193.90541076660156 " shape="regularPoly" sides="3" stroke="#000000" stroke-width="3"/>
  <polygon cx="156.5" cy="44" edge="19.7" fill="#3e5163" id="svg_13" orient="x" points="385.89479979872704,193.7749786376953 394.74367675185204,206.8336944580078 377.04592284560204,206.8336944580078 385.89479979872704,193.7749786376953 " shape="regularPoly" sides="3" stroke="#000000" stroke-width="3"/>
  <polygon cx="156.5" cy="44" edge="19.7" fill="#3e5163" id="svg_14" orient="x" points="423.11907348036766,194.0358428955078 431.96795043349266,207.0945587158203 414.27019652724266,207.0945587158203 423.11907348036766,194.0358428955078 " shape="regularPoly" sides="3" stroke="#000000" stroke-width="3"/>
  <polygon cx="156.5" cy="44" edge="19.7" fill="#3e5163" id="svg_16" orient="x" points="310.5902954041958,237.00367736816406 301.7414184510708,223.94496154785156 319.4391723573208,223.94496154785156 310.5902954041958,237.00367736816406 " shape="regularPoly" sides="3" stroke="#000000" stroke-width="3"/>
  <polygon cx="156.5" cy="44" edge="19.7" fill="#3e5163" id="svg_17" orient="x" points="348.8963561952114,237.00367736816406 340.0474792420864,223.94496154785156 357.7452331483364,223.94496154785156 348.8963561952114,237.00367736816406 " shape="regularPoly" sides="3" stroke="#000000" stroke-width="3"/>
  <polygon cx="156.5" cy="44" edge="19.7" fill="#3e5163" id="svg_18" orient="x" points="385.80547484755516,237.00367736816406 376.95659789443016,223.94496154785156 394.65435180068016,223.94496154785156 385.80547484755516,237.00367736816406 " shape="regularPoly" sides="3" stroke="#000000" stroke-width="3"/>
  <polygon cx="156.5" cy="44" edge="19.7" fill="#3e5163" id="svg_19" orient="x" points="423.03997191786766,236.89300537109375 414.19109496474266,223.83428955078125 431.88884887099266,223.83428955078125 423.03997191786766,236.89300537109375 " shape="regularPoly" sides="3" stroke="#000000" stroke-width="3"/>
  <rect fill="#3e5163" height="16.91" id="svg_1" rx="2" ry="2" stroke="#000000" stroke-width="3" width="135" x="298.3" y="207"/>
  <rect fill="#3e5163" height="129.2" id="svg_10" stroke="#000000" width="19.2" x="558.4" y="168.8"/>
 </g>
</svg>