<?xml version="1.0"?>
<svg viewBox="0 0 1000 1000" xmlns="http://www.w3.org/2000/svg" xmlns:svg="http://www.w3.org/2000/svg">
 <!-- Created with SVG-edit - https://github.com/SVG-Edit/svgedit-->
 <g class="layer">
  <title>Layer 1</title>
  <polygon cx="384.91" cy="468.27" edge="129.87" fill="#444444" id="svg_1" orient="x" points="999.4121704101562,500.77264404296875 975.0092163085938,654.8468017578125 904.1891479492188,793.8388671875 793.8843994140625,904.1438598632812 654.8921508789062,974.9637451171875 500.8182067871094,999.3667602539062 346.744140625,974.9637451171875 207.75198364257812,904.1438598632812 97.4471664428711,793.8388671875 26.62711524963379,654.8468017578125 2.224182605743408,500.77264404296875 26.62711524963379,346.69866943359375 97.4471664428711,207.7064666748047 207.75198364257812,97.401611328125 346.744140625,26.5815486907959 500.8182067871094,2.1786234378814697 654.8921508789062,26.5815486907959 793.8843994140625,97.401611328125 904.1891479492188,207.7064666748047 975.0092163085938,346.69866943359375 999.4121704101562,500.77264404296875 " shape="regularPoly" sides="20" stroke="red" stroke-width="0" transform="matrix(1 0 0 1 0 0)"/>
  <polygon cx="384.91" cy="468.27" edge="129.87" fill="#757575" id="svg_2" orient="x" points="912.593994140625,503.2735595703125 892.718236973451,630.9266967773438 835.0368758142577,746.0841674804688 745.1960824397975,837.4736938476562 631.9899485151109,896.1492919921875 506.5000776691886,916.36767578125 381.0100212038378,896.1492919921875 267.8039491522941,837.4736938476562 177.96310937297676,746.0841674804688 120.28168634064059,630.9266967773438 100.40602198318084,503.2735595703125 120.28168634064059,375.6205749511719 177.96310937297676,260.4630126953125 267.8039491522941,169.0735321044922 381.0100212038378,110.39781188964844 506.5000776691886,90.1795654296875 631.9899485151109,110.39781188964844 745.1960824397975,169.0735321044922 835.0368758142577,260.4630126953125 892.718236973451,375.6205749511719 912.593994140625,503.2735595703125 " shape="regularPoly" sides="20" stroke="red" stroke-width="0"/>
  <polygon cx="384.91" cy="468.27" edge="129.87" fill="#939393" id="svg_3" orient="x" points="817.093994140625,501.2735900878906 801.7210693359375,598.7976684570312 757.1072998046875,686.7752075195312 687.6198120117188,756.5946655273438 600.060302734375,801.42138671875 503.00006103515625,816.8677368164062 405.93951416015625,801.42138671875 318.380126953125,756.5946655273438 248.89260864257812,686.7752075195312 204.2788543701172,598.7976684570312 188.9059600830078,501.2735900878906 204.2788543701172,403.7496643066406 248.89260864257812,315.7720642089844 318.380126953125,245.95263671875 405.93951416015625,201.1257781982422 503.00006103515625,185.67947387695312 600.060302734375,201.1257781982422 687.6198120117188,245.95263671875 757.1072998046875,315.7720642089844 801.7210693359375,403.7496643066406 817.093994140625,501.2735900878906 " shape="regularPoly" sides="20" stroke="red" stroke-width="0"/>
  <polygon cx="409.09" cy="213.45" edge="27.82" fill="#757575" id="svg_7" orient="x" points="655.4300591501291,215.77972526505036 636.237140938179,239.25660588834327 597.6402494384967,247.87211148151283 554.3823123909153,238.33551127060383 522.9860797758743,214.28934096093536 515.4439013831415,184.91851583670189 534.636826484649,161.44166494313438 573.2336585248805,152.8261731290798 616.4915955724617,162.3627733399888 647.8879436616257,186.40890122656464 655.4300591501291,215.77972526505036 " shape="regularPoly" sides="10  &lt;polygon cx=&quot;401.09&quot; cy=&quot;254.45&quot; edge=&quot;35.36&quot; fill=&quot;#757575&quot; id=&quot;svg_9&quot; orient=&quot;x&quot; points=&quot;NaN,NaN NaN,NaN NaN,NaN NaN,NaN NaN,NaN NaN,NaN &quot; shape=&quot;regularPoly&quot; sides=&quot;5&quot; stroke=&quot;red&quot; stroke-width=&quot;0&quot;/&gt;   &lt;polygon cx=&quot;94.09&quot; cy=&quot;50.45&quot; edge=&quot;15.85&quot; fill=&quot;#757575&quot; id=&quot;svg_11&quot; orient=&quot;x&quot; points=&quot;NaN,NaN &quot; shape=&quot;regularPoly&quot; stroke=&quot;red&quot; stroke-width=&quot;0&quot;/&gt;   &lt;polygon cx=&quot;78.09&quot; cy=&quot;56.45&quot; edge=&quot;18.68&quot; fill=&quot;#757575&quot; id=&quot;svg_12&quot; orient=&quot;x&quot; points=&quot;NaN,NaN &quot; shape=&quot;regularPoly&quot; stroke=&quot;red&quot; stroke-width=&quot;0&quot;/&gt;   &lt;polygon cx=&quot;41.09&quot; cy=&quot;72.45&quot; edge=&quot;52.59&quot; fill=&quot;#757575&quot; id=&quot;svg_13&quot; orient=&quot;x&quot; points=&quot;NaN,NaN &quot; shape=&quot;regularPoly&quot; stroke=&quot;red&quot; stroke-width=&quot;0&quot; transform=&quot;matrix(1 0 0 1 0 0)&quot;/&gt;" stroke="red" stroke-width="0" transform="matrix(1 0 0 1 0 0) rotate(-1.96658 585.437 200.349)"/>
  <polygon cx="409.09" cy="213.45" edge="27.82" fill="#757575" id="svg_8" orient="x" points="238.00625610351562,532.2930908203125 226.67849731445312,570.3904418945312 197.71214294433594,593.7373657226562 162.17127990722656,593.4163208007812 133.63137817382812,569.5498046875 122.99369812011719,531.2540893554688 134.32150268554688,493.15679931640625 163.2879180908203,469.8098449707031 198.82876586914062,470.13092041015625 227.3686065673828,493.9974060058594 238.00625610351562,532.2930908203125 " shape="regularPoly" sides="10  &lt;polygon cx=&quot;401.09&quot; cy=&quot;254.45&quot; edge=&quot;35.36&quot; fill=&quot;#757575&quot; id=&quot;svg_9&quot; orient=&quot;x&quot; points=&quot;NaN,NaN NaN,NaN NaN,NaN NaN,NaN NaN,NaN NaN,NaN &quot; shape=&quot;regularPoly&quot; sides=&quot;5&quot; stroke=&quot;red&quot; stroke-width=&quot;0&quot;/&gt;   &lt;polygon cx=&quot;94.09&quot; cy=&quot;50.45&quot; edge=&quot;15.85&quot; fill=&quot;#757575&quot; id=&quot;svg_11&quot; orient=&quot;x&quot; points=&quot;NaN,NaN &quot; shape=&quot;regularPoly&quot; stroke=&quot;red&quot; stroke-width=&quot;0&quot;/&gt;   &lt;polygon cx=&quot;78.09&quot; cy=&quot;56.45&quot; edge=&quot;18.68&quot; fill=&quot;#757575&quot; id=&quot;svg_12&quot; orient=&quot;x&quot; points=&quot;NaN,NaN &quot; shape=&quot;regularPoly&quot; stroke=&quot;red&quot; stroke-width=&quot;0&quot;/&gt;   &lt;polygon cx=&quot;41.09&quot; cy=&quot;72.45&quot; edge=&quot;52.59&quot; fill=&quot;#757575&quot; id=&quot;svg_13&quot; orient=&quot;x&quot; points=&quot;NaN,NaN &quot; shape=&quot;regularPoly&quot; stroke=&quot;red&quot; stroke-width=&quot;0&quot; transform=&quot;matrix(1 0 0 1 0 0)&quot;/&gt;" stroke="red" stroke-width="0" transform="matrix(1 0 0 1 0 0)"/>
  <polygon cx="409.09" cy="213.45" edge="27.82" fill="#757575" id="svg_9" orient="x" points="709.3403387539237,544.312173395406 710.3142157070487,588.8321318914998 677.1680975429862,632.985757379781 622.5626287929862,659.9079985907185 567.3549871914237,659.3155303289998 532.6328192226737,631.434487848531 531.6590643398612,586.9145293524373 564.8053045742362,542.7608428289998 619.4108953945487,515.8386016180623 674.6181707851737,516.4311919500935 709.3403387539237,544.312173395406 " shape="regularPoly" sides="10  &lt;polygon cx=&quot;401.09&quot; cy=&quot;254.45&quot; edge=&quot;35.36&quot; fill=&quot;#757575&quot; id=&quot;svg_9&quot; orient=&quot;x&quot; points=&quot;NaN,NaN NaN,NaN NaN,NaN NaN,NaN NaN,NaN NaN,NaN &quot; shape=&quot;regularPoly&quot; sides=&quot;5&quot; stroke=&quot;red&quot; stroke-width=&quot;0&quot;/&gt;   &lt;polygon cx=&quot;94.09&quot; cy=&quot;50.45&quot; edge=&quot;15.85&quot; fill=&quot;#757575&quot; id=&quot;svg_11&quot; orient=&quot;x&quot; points=&quot;NaN,NaN &quot; shape=&quot;regularPoly&quot; stroke=&quot;red&quot; stroke-width=&quot;0&quot;/&gt;   &lt;polygon cx=&quot;78.09&quot; cy=&quot;56.45&quot; edge=&quot;18.68&quot; fill=&quot;#757575&quot; id=&quot;svg_12&quot; orient=&quot;x&quot; points=&quot;NaN,NaN &quot; shape=&quot;regularPoly&quot; stroke=&quot;red&quot; stroke-width=&quot;0&quot;/&gt;   &lt;polygon cx=&quot;41.09&quot; cy=&quot;72.45&quot; edge=&quot;52.59&quot; fill=&quot;#757575&quot; id=&quot;svg_13&quot; orient=&quot;x&quot; points=&quot;NaN,NaN &quot; shape=&quot;regularPoly&quot; stroke=&quot;red&quot; stroke-width=&quot;0&quot; transform=&quot;matrix(1 0 0 1 0 0)&quot;/&gt;" stroke="red" stroke-width="0" transform="matrix(1 0 0 1 0 0) rotate(3.40057 681.5 781.274) matrix(0.942142 -0.335213 0.335213 0.942142 -100.621 435.576)"/>
  <circle cx="692" cy="451.77" fill="#757575" id="svg_11" r="39.96" stroke="red" stroke-width="0"/>
 </g>
</svg>