<svg width="612" height="145" xmlns="http://www.w3.org/2000/svg" xmlns:svg="http://www.w3.org/2000/svg">
 <!-- Created with SVG-edit - http://svg-edit.googlecode.com/ -->
 <g>
  <title>Layer 1</title>
  <rect id="svg_2" ry="3" rx="3" height="35" width="110" y="2" x="2" stroke-linecap="null" stroke-linejoin="null" stroke-dasharray="null" stroke-width="4" fill="#b35000" stroke="#2D2D2D"/>
  <rect ry="3" rx="3" height="35" width="55" y="37" x="2.00001" stroke-linecap="null" stroke-linejoin="null" stroke-dasharray="null" stroke-width="4" fill="#b35000" stroke="#2D2D2D" id="svg_1"/>
  <rect ry="3" rx="3" height="35" width="110" y="72" x="2" stroke-linecap="null" stroke-linejoin="null" stroke-dasharray="null" stroke-width="4" fill="#b35000" stroke="#2D2D2D" id="svg_3"/>
  <rect ry="3" rx="3" height="35" width="55" y="107" x="2" stroke-linecap="null" stroke-linejoin="null" stroke-dasharray="null" stroke-width="4" fill="#b35000" stroke="#2D2D2D" id="svg_4"/>
  <rect ry="3" rx="3" height="35" width="110" y="37.1" x="57" stroke-linecap="null" stroke-linejoin="null" stroke-dasharray="null" stroke-width="4" fill="#b35000" stroke="#2D2D2D" id="svg_6"/>
  <rect ry="3" rx="3" height="35" width="110" y="107" x="57" stroke-linecap="null" stroke-linejoin="null" stroke-dasharray="null" stroke-width="4" fill="#b35000" stroke="#2D2D2D" id="svg_7"/>
  <rect ry="3" rx="3" height="35" width="110" y="2" x="112" stroke-linecap="null" stroke-linejoin="null" stroke-dasharray="null" stroke-width="4" fill="#b35000" stroke="#2D2D2D" id="svg_10"/>
  <rect ry="3" rx="3" height="35" width="110" y="72" x="112" stroke-linecap="null" stroke-linejoin="null" stroke-dasharray="null" stroke-width="4" fill="#b35000" stroke="#2D2D2D" id="svg_11"/>
  <rect ry="3" rx="3" height="35" width="110" y="37" x="167" stroke-linecap="null" stroke-linejoin="null" stroke-dasharray="null" stroke-width="4" fill="#b35000" stroke="#2D2D2D" id="svg_12"/>
  <rect ry="3" rx="3" height="35" width="110" y="107" x="167" stroke-linecap="null" stroke-linejoin="null" stroke-dasharray="null" stroke-width="4" fill="#b35000" stroke="#2D2D2D" id="svg_13"/>
  <rect ry="3" rx="3" height="35" width="110" y="1.66667" x="221.66667" stroke-linecap="null" stroke-linejoin="null" stroke-dasharray="null" stroke-width="4" fill="#b35000" stroke="#2D2D2D" id="svg_14"/>
  <rect ry="3" rx="3" height="35" width="110" y="71.66667" x="222.33333" stroke-linecap="null" stroke-linejoin="null" stroke-dasharray="null" stroke-width="4" fill="#b35000" stroke="#2D2D2D" id="svg_15"/>
  <rect ry="3" rx="3" height="35" width="110" y="36.66667" x="277.33333" stroke-linecap="null" stroke-linejoin="null" stroke-dasharray="null" stroke-width="4" fill="#b35000" stroke="#2D2D2D" id="svg_16"/>
  <rect ry="3" rx="3" height="35" width="110" y="107" x="277.33333" stroke-linecap="null" stroke-linejoin="null" stroke-dasharray="null" stroke-width="4" fill="#b35000" stroke="#2D2D2D" id="svg_17"/>
  <rect ry="3" rx="3" height="35" width="110" y="1.66667" x="332.33334" stroke-linecap="null" stroke-linejoin="null" stroke-dasharray="null" stroke-width="4" fill="#b35000" stroke="#2D2D2D" id="svg_18"/>
  <rect ry="3" rx="3" height="35" width="110" y="72" x="333.66666" stroke-linecap="null" stroke-linejoin="null" stroke-dasharray="null" stroke-width="4" fill="#b35000" stroke="#2D2D2D" id="svg_19"/>
  <rect ry="3" rx="3" height="35" width="110" y="36.66667" x="388.33333" stroke-linecap="null" stroke-linejoin="null" stroke-dasharray="null" stroke-width="4" fill="#b35000" stroke="#2D2D2D" id="svg_20"/>
  <rect ry="3" rx="3" height="35" width="110" y="107.33333" x="387.66667" stroke-linecap="null" stroke-linejoin="null" stroke-dasharray="null" stroke-width="4" fill="#b35000" stroke="#2D2D2D" id="svg_21"/>
  <rect ry="3" rx="3" height="35" width="110" y="1.66667" x="443.33333" stroke-linecap="null" stroke-linejoin="null" stroke-dasharray="null" stroke-width="4" fill="#b35000" stroke="#2D2D2D" id="svg_22"/>
  <rect ry="3" rx="3" height="35" width="110" y="71.66667" x="444.33333" stroke-linecap="null" stroke-linejoin="null" stroke-dasharray="null" stroke-width="4" fill="#b35000" stroke="#2D2D2D" id="svg_23"/>
  <rect ry="3" rx="3" height="35" width="110" y="107.33333" x="499.00001" stroke-linecap="null" stroke-linejoin="null" stroke-dasharray="null" stroke-width="4" fill="#b35000" stroke="#2D2D2D" id="svg_24"/>
  <rect ry="3" rx="3" height="35" width="110" y="36.33333" x="499.66668" stroke-linecap="null" stroke-linejoin="null" stroke-dasharray="null" stroke-width="4" fill="#b35000" stroke="#2D2D2D" id="svg_25"/>
  <rect ry="3" rx="3" height="35" width="55" y="71.33333" x="554.16667" stroke-linecap="null" stroke-linejoin="null" stroke-dasharray="null" stroke-width="4" fill="#b35000" stroke="#2D2D2D" id="svg_26"/>
  <rect ry="3" rx="3" height="35" width="55" y="1" x="554.50001" stroke-linecap="null" stroke-linejoin="null" stroke-dasharray="null" stroke-width="4" fill="#b35000" stroke="#2D2D2D" id="svg_27"/>
 </g>
</svg>