<svg width="400" height="400" xmlns="http://www.w3.org/2000/svg" xmlns:svg="http://www.w3.org/2000/svg">
 <!-- Created with SVG-edit - https://github.com/SVG-Edit/svgedit-->
 <g>
  <title>Layer 1</title>
  <g id="svg_1" class="layer"/>
  <polygon stroke="#bf0000" id="svg_4" stroke-width="0" points="264.8464907005691,55.49998474121094 218.745866786252,109.29652404785156 144.15350341796875,88.748046875 144.15350341796875,22.251922607421875 218.745866786252,1.7034759521484375 264.8464907005691,55.49998474121094 " fill="#74a048"/>
  <polygon id="svg_5" stroke="#bf0000" stroke-width="0" points="364.84649658203125,93.49998474121094 320.65570068359375,147.29652404785156 249.15350341796875,126.748046875 249.15350341796875,60.251922607421875 320.65570068359375,39.70347595214844 364.84649658203125,93.49998474121094 " fill="#74a048"/>
  <polygon id="svg_7" stroke="#bf0000" stroke-width="0" points="398.84649658203125,181.49998474121094 354.65570068359375,235.29652404785156 283.15350341796875,214.748046875 283.15350341796875,148.25192260742188 354.65570068359375,127.70347595214844 398.84649658203125,181.49998474121094 " fill="#74a048"/>
  <polygon id="svg_8" stroke="#bf0000" stroke-width="0" points="387.84649658203125,268.49998474121094 343.65570068359375,322.29652404785156 272.15350341796875,301.748046875 272.15350341796875,235.25192260742188 343.65570068359375,214.70347595214844 387.84649658203125,268.49998474121094 " fill="#74a048"/>
  <polygon stroke="#bf0000" id="svg_9" stroke-width="0" points="328.84649658203125,318.99996774398096 284.65570068359375,379.2965087890625 213.15350341796875,356.26526564250526 213.15350341796875,281.73470405034095 284.65570068359375,258.703495108668 328.84649658203125,318.99996774398096 " fill="#74a048"/>
  <polygon id="svg_10" stroke="#bf0000" stroke-width="0" points="245.84649658203125,345.49998474121094 201.65570068359375,399.29652404785156 130.15350341796875,378.748046875 130.15350341796875,312.2519226074219 201.65570068359375,291.70347595214844 245.84649658203125,345.49998474121094 " fill="#74a048"/>
  <polygon id="svg_11" stroke="#bf0000" stroke-width="0" points="160.84649658203125,298.4999694824219 116.65570068359375,352.2965087890625 45.15350341796875,331.748046875 45.15350341796875,265.2519226074219 116.65570068359375,244.70347595214844 160.84649658203125,298.4999694824219 " fill="#74a048"/>
  <polygon stroke="#bf0000" id="svg_12" stroke-width="0" points="122.84649658203125,200.49998674682865 78.65570068359375,256.2965087890625 7.15350341796875,234.98411494179163 7.15350341796875,166.01585855186568 78.65570068359375,144.70348053066118 122.84649658203125,200.49998674682865 " fill="#74a048"/>
  <polygon id="svg_13" stroke="#bf0000" stroke-width="0" points="157.84649658203125,107.49998474121094 113.65570068359375,161.29652404785156 42.15350341796875,140.748046875 42.15350341796875,74.25192260742188 113.65570068359375,53.70347595214844 157.84649658203125,107.49998474121094 " fill="#74a048"/>
  <polygon id="svg_14" stroke="#bf0000" stroke-width="0" points="232.6798095703125,117.49996948242188 184.03277587890625,187.96319580078125 105.3201904296875,161.04861450195312 105.3201904296875,73.95135498046875 184.03277587890625,47.03680419921875 232.6798095703125,117.49996948242188 " fill="#5a892a"/>
  <polygon id="svg_15" stroke="#bf0000" stroke-width="0" points="308.6798095703125,140.49996948242188 260.03277587890625,210.96319580078125 181.3201904296875,184.04861450195312 181.3201904296875,96.95135498046875 260.03277587890625,70.03680419921875 308.6798095703125,140.49996948242188 " fill="#5a892a"/>
  <polygon stroke="#bf0000" id="svg_16" stroke-width="0" points="207.6798095703125,204.99996433849083 155.21311950683594,282.9631920094107 70.3201904296875,253.18386257610473 70.3201904296875,156.81609986670082 155.21311950683594,127.03680419921875 207.6798095703125,204.99996433849083 " fill="#5a892a"/>
  <polygon id="svg_17" stroke="#bf0000" stroke-width="0" points="257.6798095703125,256.4999694824219 209.03277587890625,326.96319580078125 130.3201904296875,300.0486145019531 130.3201904296875,212.95135498046875 209.03277587890625,186.03680419921875 257.6798095703125,256.4999694824219 " fill="#5a892a"/>
  <polygon id="svg_18" stroke="#bf0000" stroke-width="0" points="340.6798095703125,224.49996948242188 292.03277587890625,294.96319580078125 213.3201904296875,268.0486145019531 213.3201904296875,180.95135498046875 292.03277587890625,154.03680419921875 340.6798095703125,224.49996948242188 " fill="#5a892a"/>
  <polygon stroke="#bf0000" id="svg_2" stroke-width="0" points="251.84649658203125,186.9999689069864 213.0032501220703,234.29650913753176 150.15350341796875,216.23082244798024 150.15350341796875,157.76914688313082 213.0032501220703,139.70347595214844 251.84649658203125,186.9999689069864 " fill="#74a048"/>
 </g>
</svg>