<svg width="600" height="600" xmlns="http://www.w3.org/2000/svg" xmlns:svg="http://www.w3.org/2000/svg">
 <!-- Created with SVG-edit - https://github.com/SVG-Edit/svgedit-->
 <g>
  <title>Layer 1</title>
  <g class="layer" id="svg_1"/>
  <polygon id="svg_4" fill="#74a048" points="174.21450805664062,139 135.37124633789062,192.4631805419922 72.5215072631836,172.04205322265625 72.5215072631836,105.95793914794922 135.37124633789062,85.53681945800781 174.21450805664062,139 " stroke-width="0" stroke="#bf0000"/>
  <polygon fill="#74a048" points="262.5131530761719,85.16666373095359 216.0305892919987,153.29652744866326 140.8201752053119,127.27321103503346 140.8201752053119,43.06011642687372 216.0305892919987,17.036819458007812 262.5131530761719,85.16666373095359 " stroke-width="0" id="svg_5" stroke="#bf0000"/>
  <polygon fill="#74a048" points="371.84649658203125,59.83333556308389 320.7803251213045,116.62986787830778 238.1535059451562,94.93550286739082 238.1535059451562,24.73116825877696 320.7803251213045,3.0368194580078125 371.84649658203125,59.83333556308389 " stroke-width="0" id="svg_6" stroke="#bf0000"/>
  <polygon fill="#74a048" points="477.84649658203125,90.50000133785034 422.9606626434834,145.96319904729717 334.15349840051204,124.778123009497 334.15349840051204,56.22187966620368 422.9606626434834,35.03681945800781 477.84649658203125,90.50000133785034 " stroke-width="0" id="svg_7" stroke="#bf0000"/>
  <polygon fill="#74a048" points="560.8464965820312,174.24999858561932 508.0614929199219,243.46319746718655 422.65350341796875,217.02608345860062 422.65350341796875,131.47391371263802 508.0614929199219,105.03681945800781 560.8464965820312,174.24999858561932 " stroke-width="0" id="svg_8" stroke="#bf0000"/>
  <polygon fill="#74a048" points="594.8464965820312,271.2499997654977 538.0508422851562,337.46319897072135 446.15350341796875,312.17198393445324 446.15350341796875,230.32801559654217 538.0508422851562,205.0368194580078 594.8464965820312,271.2499997654977 " stroke-width="0" id="svg_9" stroke="#bf0000"/>
  <polygon fill="#74a048" points="589.1798095703125,378.8333317261422 542.9518432617188,440.62985925306566 468.15350341796875,417.0256642445456 468.15350341796875,340.6409992077388 542.9518432617188,317.03680419921875 589.1798095703125,378.8333317261422 " stroke-width="0" id="svg_10" stroke="#bf0000"/>
  <polygon fill="#74a048" points="547.1798095703125,462.49999776945333 493.5672302246094,526.9631913396879 406.8201599121094,502.3404168949055 406.8201599121094,422.65957864400116 493.5672302246094,398.03680419921875 547.1798095703125,462.49999776945333 " stroke-width="0" id="svg_11" stroke="#bf0000"/>
  <polygon fill="#74a048" points="450.84649658203125,525.5 391.63172338066215,583.9631958007812 295.8201840425718,561.6322021484375 295.8201840425718,489.3677673339844 391.63172338066215,467.03680419921875 450.84649658203125,525.5 " stroke-width="0" id="svg_12" stroke="#bf0000"/>
  <polygon fill="#74a048" points="341.84649658203125,546.8333129882812 293.0721198297106,600.2965087890625 214.15350319829304,579.8753662109375 214.15350319829304,513.791259765625 293.0721198297106,493.3701477050781 341.84649658203125,546.8333129882812 " stroke-width="0" id="svg_13" stroke="#bf0000"/>
  <polygon fill="#74a048" points="236.84649658203125,516.5 198.00323486328125,569.9631958007812 135.15350341796875,549.5420532226562 135.15350341796875,483.45794677734375 198.00323486328125,463.03680419921875 236.84649658203125,516.5 " stroke-width="0" stroke="#bf0000" id="svg_14"/>
  <polygon fill="#74a048" points="202.51316704532655,440.5 146.60875768082042,493.96319580078125 56.15350341796875,473.54205322265625 56.15350341796875,407.45794677734375 146.60875768082042,387.03680419921875 202.51316704532655,440.5 " stroke-width="0" id="svg_15" stroke="#bf0000"/>
  <polygon fill="#74a048" points="115.84649658203125,351.8333317261422 77.00323486328125,413.62985925306566 14.15350341796875,390.0256642445456 14.15350341796875,313.6409992077388 77.00323486328125,290.03680419921875 115.84649658203125,351.8333317261422 " stroke-width="0" id="svg_16" stroke="#bf0000"/>
  <polygon fill="#74a048" points="119.84649658203125,246.83333336129908 81.00323486328125,314.6298666142193 18.15350341796875,288.7338712266737 18.15350341796875,204.93279549592444 81.00323486328125,179.0368194580078 119.84649658203125,246.83333336129908 " stroke-width="0" id="svg_17" stroke="#bf0000"/>
  <polygon fill="#5a892a" points="393.84649658203125,158.0000045830875 319.9896845759504,244.963205326143 200.48683632969914,211.74619157500638 200.48683632969914,104.25381759116863 319.9896845759504,71.03681945800781 393.84649658203125,158.0000045830875 " stroke-width="0" id="svg_19" stroke="#bf0000"/>
  <polygon fill="#5a892a" points="514.01318359375,190.83333428466722 447.5410383471826,284.46319580078125 339.98684159105323,248.69973901058074 339.98684159105323,132.9669295587537 447.5410383471826,97.20349041457484 514.01318359375,190.83333428466722 " stroke-width="0" id="svg_21" stroke="#bf0000"/>
  <polygon fill="#5a892a" points="540.01318359375,341.8333435058594 474.0503225571629,430.1298828125 367.3201691512295,396.403564453125 367.3201691512295,287.2630920410156 474.0503225571629,253.5368194580078 540.01318359375,341.8333435058594 " stroke-width="0" id="svg_22" stroke="#bf0000"/>
  <polygon fill="#5a892a" points="461.01316491259786,439.4999973870581 400.9071350140548,521.4631905748975 303.65350341796875,490.1560098907794 303.65350341796875,388.8439848833368 400.9071350140548,357.53680419921875 461.01316491259786,439.4999973870581 " stroke-width="0" id="svg_23" stroke="#bf0000"/>
  <polygon fill="#5a892a" points="336.6798238240881,450.16666335694026 270.97162987236516,534.7965225146618 164.65350341796875,502.4707651975914 164.65350341796875,397.86256151628913 270.97162987236516,365.53680419921875 336.6798238240881,450.16666335694026 " stroke-width="0" id="svg_24" stroke="#bf0000"/>
  <polygon fill="#5a892a" points="275.34649987834564,353.8333270810017 202.50827159401888,457.1298566065798 84.65350341796875,417.67405958207564 84.65350341796875,289.99259457992775 202.50827159401888,250.5368194580078 275.34649987834564,353.8333270810017 " stroke-width="0" id="svg_25" stroke="#bf0000"/>
  <polygon fill="#5a892a" points="259.34649658203125,219.5 189.30935991246952,314.46319580078125 75.98683925935984,278.1904602050781 75.98683925935984,160.80953979492188 189.30935991246952,124.53681945800781 259.34649658203125,219.5 " stroke-width="0" id="svg_26" stroke="#bf0000"/>
  <polygon fill="#3e6614" points="364.34649658203125,220.0000023296343 312.1344299316406,284.46319580078125 227.65350341796875,259.84042590879653 227.65350341796875,180.15957875047206 312.1344299316406,155.53682252700582 364.34649658203125,220.0000023296343 " stroke-width="0" id="svg_27" stroke="#bf0000"/>
  <polygon fill="#3e6614" points="435.34649658203125,283.5 383.1344299316406,355.46319580078125 298.65350341796875,327.9756774902344 298.65350341796875,239.02432250976562 383.1344299316406,211.53680419921875 435.34649658203125,283.5 " stroke-width="0" stroke="#bf0000" id="svg_29"/>
  <polygon fill="#3e6614" points="404.34649658203125,351 355.5721130371094,429.46319580078125 276.65350341796875,399.4928894042969 276.65350341796875,302.5071105957031 355.5721130371094,272.53680419921875 404.34649658203125,351 " stroke-width="0" id="svg_30" stroke="#bf0000"/>
  <polygon fill="#3e6614" points="334.34649658203125,310 279.8426513671875,386.46319580078125 191.65350341796875,357.2568359375 191.65350341796875,262.7431640625 279.8426513671875,233.53680419921875 334.34649658203125,310 " stroke-width="0" id="svg_31" stroke="#bf0000"/>
  <polygon id="svg_2" fill="#7f3f00" points="349.34649658203125,301.50000019207437 315.4687805175781,345.46319618493 260.65350341796875,328.67072378045305 260.65350341796875,274.3292766036957 315.4687805175781,257.53680419921875 349.34649658203125,301.50000019207437 " stroke-width="0" stroke="#bf0000"/>
 </g>
</svg>