<svg width="600" height="600" xmlns="http://www.w3.org/2000/svg" xmlns:svg="http://www.w3.org/2000/svg">
 <!-- Created with SVG-edit - https://github.com/SVG-Edit/svgedit-->
 <g>
  <title>Layer 1</title>
  <g id="svg_1" class="layer"/>
  <polygon stroke="#bf0000" stroke-width="0" points="174.21450805664062,146.50000023695793 129.83274014249218,207.46318101590805 58.021521259026485,184.17730718913845 58.021521259026485,108.82268458510498 129.83274014249218,85.53681945800781 174.21450805664062,146.50000023695793 " fill="#74a048" id="svg_4"/>
  <polygon stroke="#bf0000" id="svg_5" stroke-width="0" points="262.5131530761719,85.16666373095359 216.0305892919987,153.29652744866326 140.8201752053119,127.27321103503346 140.8201752053119,43.06011642687372 216.0305892919987,17.036819458007812 262.5131530761719,85.16666373095359 " fill="#74a048"/>
  <polygon stroke="#bf0000" id="svg_6" stroke-width="0" points="371.84649658203125,59.83333556308389 320.7803251213045,116.62986787830778 238.1535059451562,94.93550286739082 238.1535059451562,24.73116825877696 320.7803251213045,3.0368194580078125 371.84649658203125,59.83333556308389 " fill="#74a048"/>
  <polygon stroke="#bf0000" id="svg_7" stroke-width="0" points="477.84649658203125,90.50000133785034 422.9606626434834,145.96319904729717 334.15349840051204,124.778123009497 334.15349840051204,56.22187966620368 422.9606626434834,35.03681945800781 477.84649658203125,90.50000133785034 " fill="#74a048"/>
  <polygon stroke="#bf0000" id="svg_8" stroke-width="0" points="560.8464965820312,174.24999858561932 508.0614929199219,243.46319746718655 422.65350341796875,217.02608345860062 422.65350341796875,131.47391371263802 508.0614929199219,105.03681945800781 560.8464965820312,174.24999858561932 " fill="#74a048"/>
  <polygon stroke="#bf0000" id="svg_9" stroke-width="0" points="594.8464965820312,271.2499997654977 538.0508422851562,337.46319897072135 446.15350341796875,312.17198393445324 446.15350341796875,230.32801559654217 538.0508422851562,205.0368194580078 594.8464965820312,271.2499997654977 " fill="#74a048"/>
  <polygon stroke="#bf0000" id="svg_10" stroke-width="0" points="589.1798095703125,378.8333317261422 542.9518432617188,440.62985925306566 468.15350341796875,417.0256642445456 468.15350341796875,340.6409992077388 542.9518432617188,317.03680419921875 589.1798095703125,378.8333317261422 " fill="#74a048"/>
  <polygon stroke="#bf0000" id="svg_11" stroke-width="0" points="547.1798095703125,462.49999776945333 493.5672302246094,526.9631913396879 406.8201599121094,502.3404168949055 406.8201599121094,422.65957864400116 493.5672302246094,398.03680419921875 547.1798095703125,462.49999776945333 " fill="#74a048"/>
  <polygon stroke="#bf0000" id="svg_12" stroke-width="0" points="450.84649658203125,525.5 391.63172338066215,583.9631958007812 295.8201840425718,561.6322021484375 295.8201840425718,489.3677673339844 391.63172338066215,467.03680419921875 450.84649658203125,525.5 " fill="#74a048"/>
  <polygon stroke="#bf0000" id="svg_13" stroke-width="0" points="341.84649658203125,546.8333129882812 293.0721198297106,600.2965087890625 214.15350319829304,579.8753662109375 214.15350319829304,513.791259765625 293.0721198297106,493.3701477050781 341.84649658203125,546.8333129882812 " fill="#74a048"/>
  <polygon id="svg_14" stroke="#bf0000" stroke-width="0" points="236.84649658203125,516.5 198.00323486328125,569.9631958007812 135.15350341796875,549.5420532226562 135.15350341796875,483.45794677734375 198.00323486328125,463.03680419921875 236.84649658203125,516.5 " fill="#74a048"/>
  <polygon stroke="#bf0000" id="svg_15" stroke-width="0" points="202.51316833496094,438.8333349294335 146.6087646484375,493.96319580078125 56.15350341796875,472.9054432234552 56.15350341796875,404.76122663541173 146.6087646484375,383.7034740580857 202.51316833496094,438.8333349294335 " fill="#74a048"/>
  <polygon stroke="#bf0000" id="svg_16" stroke-width="0" points="115.84649658203125,351.8333317261422 77.00323486328125,413.62985925306566 14.15350341796875,390.0256642445456 14.15350341796875,313.6409992077388 77.00323486328125,290.03680419921875 115.84649658203125,351.8333317261422 " fill="#74a048"/>
  <polygon stroke="#bf0000" id="svg_17" stroke-width="0" points="135.84649658203125,245.8333282470703 87.8360595703125,313.6298522949219 10.153499603271484,287.7338562011719 10.153499603271484,203.93280029296875 87.8360595703125,178.0368194580078 135.84649658203125,245.8333282470703 " fill="#74a048"/>
  <polygon stroke="#bf0000" id="svg_19" stroke-width="0" points="393.84649658203125,158.0000045830875 319.9896845759504,244.963205326143 200.48683632969914,211.74619157500638 200.48683632969914,104.25381759116863 319.9896845759504,71.03681945800781 393.84649658203125,158.0000045830875 " fill="#5a892a"/>
  <polygon stroke="#bf0000" id="svg_21" stroke-width="0" points="514.01318359375,190.83333428466722 447.5410383471826,284.46319580078125 339.98684159105323,248.69973901058074 339.98684159105323,132.9669295587537 447.5410383471826,97.20349041457484 514.01318359375,190.83333428466722 " fill="#5a892a"/>
  <polygon stroke="#bf0000" id="svg_22" stroke-width="0" points="540.01318359375,336.5000091818911 474.0503234863281,425.463213774583 367.3201599121094,391.48224665304224 367.3201599121094,281.5177419731226 474.0503234863281,247.5368194580078 540.01318359375,336.5000091818911 " fill="#5a892a"/>
  <polygon stroke="#bf0000" id="svg_23" stroke-width="0" points="461.01316491259786,439.4999973870581 400.9071350140548,521.4631905748975 303.65350341796875,490.1560098907794 303.65350341796875,388.8439848833368 400.9071350140548,357.53680419921875 461.01316491259786,439.4999973870581 " fill="#5a892a"/>
  <polygon stroke="#bf0000" id="svg_24" stroke-width="0" points="336.6798238240881,450.16666335694026 270.97162987236516,534.7965225146618 164.65350341796875,502.4707651975914 164.65350341796875,397.86256151628913 270.97162987236516,365.53680419921875 336.6798238240881,450.16666335694026 " fill="#5a892a"/>
  <polygon stroke="#bf0000" id="svg_25" stroke-width="0" points="274.67982989549637,357.4999694824219 201.841603577137,457.1298522949219 83.98683673143387,419.0746154785156 83.98683673143387,295.92535400390625 201.841603577137,257.8701477050781 274.67982989549637,357.4999694824219 " fill="#5a892a"/>
  <polygon stroke="#bf0000" id="svg_26" stroke-width="0" points="259.34649658203125,220.16666384960627 189.30935668945312,315.79652360711407 75.9868392944336,279.2691448812002 75.9868392944336,161.06418281801234 189.30935668945312,124.53681945800781 259.34649658203125,220.16666384960627 " fill="#5a892a"/>
  <polygon id="svg_27" stroke="#bf0000" stroke-width="0" points="364.34649658203125,212.5 312.1344299316406,284.46319580078125 227.65350341796875,256.9756774902344 227.65350341796875,168.02432250976562 312.1344299316406,140.5368194580078 364.34649658203125,212.5 " fill="#3e6614"/>
  <polygon stroke="#bf0000" id="svg_29" stroke-width="0" points="440.34649658203125,278.99999908547034 388.1344299316406,354.4631939717219 303.65350341796875,325.63879383042513 303.65350341796875,232.36120434051554 388.1344299316406,203.53680419921875 440.34649658203125,278.99999908547034 " fill="#3e6614"/>
  <polygon id="svg_30" stroke="#bf0000" stroke-width="0" points="387.34649658203125,371.5 335.1344299316406,443.46319580078125 250.65350341796875,415.9756774902344 250.65350341796875,327.0243225097656 335.1344299316406,299.53680419921875 387.34649658203125,371.5 " fill="#3e6614"/>
  <polygon id="svg_31" stroke="#bf0000" stroke-width="0" points="315.34649658203125,300.5 263.1344299316406,372.46319580078125 178.65350341796875,344.9756774902344 178.65350341796875,256.0243225097656 263.1344299316406,228.53680419921875 315.34649658203125,300.5 " fill="#3e6614"/>
  <ellipse fill="#5b2e03" stroke="#2c4c09" stroke-width="0" stroke-dasharray="null" stroke-linejoin="null" stroke-linecap="null" cx="300" cy="300" id="svg_2" rx="60" ry="60"/>
 </g>
</svg>