<svg width="145" height="612" xmlns="http://www.w3.org/2000/svg" xmlns:svg="http://www.w3.org/2000/svg">
 <!-- Created with SVG-edit - http://svg-edit.googlecode.com/ -->
 <g>
  <title>Layer 1</title>
  <rect id="svg_2" ry="3" rx="3" height="110" width="35" y="1.96875" x="2.125" stroke-linecap="null" stroke-linejoin="null" stroke-dasharray="null" stroke-width="4" fill="#b35000" stroke="#000000"/>
  <rect ry="3" rx="3" height="55" width="35" y="1.71875" x="37.40625" stroke-linecap="null" stroke-linejoin="null" stroke-dasharray="null" stroke-width="4" fill="#b35000" stroke="#000000" id="svg_1"/>
  <rect id="svg_3" ry="3" rx="3" height="110" width="35" y="1.95313" x="72.34375" stroke-linecap="null" stroke-linejoin="null" stroke-dasharray="null" stroke-width="4" fill="#b35000" stroke="#000000"/>
  <rect id="svg_4" ry="3" rx="3" height="55" width="35" y="1.89063" x="108.0625" stroke-linecap="null" stroke-linejoin="null" stroke-dasharray="null" stroke-width="4" fill="#b35000" stroke="#000000"/>
  <rect id="svg_5" ry="3" rx="3" height="110" width="35" y="57.64063" x="37.46875" stroke-linecap="null" stroke-linejoin="null" stroke-dasharray="null" stroke-width="4" fill="#b35000" stroke="#000000"/>
  <rect id="svg_6" ry="3" rx="3" height="110" width="35" y="57.07813" x="108.0625" stroke-linecap="null" stroke-linejoin="null" stroke-dasharray="null" stroke-width="4" fill="#b35000" stroke="#000000"/>
  <rect id="svg_7" ry="3" rx="3" height="110" width="35" y="112.4375" x="2.125" stroke-linecap="null" stroke-linejoin="null" stroke-dasharray="null" stroke-width="4" fill="#b35000" stroke="#000000"/>
  <rect id="svg_8" ry="3" rx="3" height="110" width="35" y="112.4375" x="72.625" stroke-linecap="null" stroke-linejoin="null" stroke-dasharray="null" stroke-width="4" fill="#b35000" stroke="#000000"/>
  <rect id="svg_9" ry="3" rx="3" height="110" width="35" y="168.3125" x="37.375" stroke-linecap="null" stroke-linejoin="null" stroke-dasharray="null" stroke-width="4" fill="#b35000" stroke="#000000"/>
  <rect id="svg_10" ry="3" rx="3" height="110" width="35" y="167.1875" x="108.25" stroke-linecap="null" stroke-linejoin="null" stroke-dasharray="null" stroke-width="4" fill="#b35000" stroke="#000000"/>
  <rect id="svg_11" ry="3" rx="3" height="110" width="35" y="222.75" x="2" stroke-linecap="null" stroke-linejoin="null" stroke-dasharray="null" stroke-width="4" fill="#b35000" stroke="#000000"/>
  <rect id="svg_12" ry="3" rx="3" height="110" width="35" y="222.75" x="73" stroke-linecap="null" stroke-linejoin="null" stroke-dasharray="null" stroke-width="4" fill="#b35000" stroke="#000000"/>
  <rect id="svg_13" ry="3" rx="3" height="110" width="35" y="278.66667" x="37.27779" stroke-linecap="null" stroke-linejoin="null" stroke-dasharray="null" stroke-width="4" fill="#b35000" stroke="#000000"/>
  <rect id="svg_14" ry="3" rx="3" height="110" width="35" y="277.33333" x="107.94445" stroke-linecap="null" stroke-linejoin="null" stroke-dasharray="null" stroke-width="4" fill="#b35000" stroke="#000000"/>
  <rect id="svg_15" ry="3" rx="3" height="110" width="35" y="333.33333" x="1.94446" stroke-linecap="null" stroke-linejoin="null" stroke-dasharray="null" stroke-width="4" fill="#b35000" stroke="#000000"/>
  <rect id="svg_16" ry="3" rx="3" height="110" width="35" y="333.33333" x="72.61113" stroke-linecap="null" stroke-linejoin="null" stroke-dasharray="null" stroke-width="4" fill="#b35000" stroke="#000000"/>
  <rect id="svg_17" ry="3" rx="3" height="110" width="35" y="389.33333" x="37.27778" stroke-linecap="null" stroke-linejoin="null" stroke-dasharray="null" stroke-width="4" fill="#b35000" stroke="#000000"/>
  <rect id="svg_18" ry="3" rx="3" height="110" width="35" y="388" x="107.94447" stroke-linecap="null" stroke-linejoin="null" stroke-dasharray="null" stroke-width="4" fill="#b35000" stroke="#000000"/>
  <rect id="svg_19" ry="3" rx="3" height="110" width="35" y="443.96301" x="2.24072" stroke-linecap="null" stroke-linejoin="null" stroke-dasharray="null" stroke-width="4" fill="#b35000" stroke="#000000"/>
  <rect id="svg_20" ry="3" rx="3" height="110" width="35" y="443.96302" x="72.46296" stroke-linecap="null" stroke-linejoin="null" stroke-dasharray="null" stroke-width="4" fill="#b35000" stroke="#000000"/>
  <rect id="svg_21" ry="3" rx="3" height="110" width="35" y="499.96301" x="108.01851" stroke-linecap="null" stroke-linejoin="null" stroke-dasharray="null" stroke-width="4" fill="#b35000" stroke="#000000"/>
  <rect id="svg_22" ry="3" rx="3" height="110" width="35" y="499.96301" x="37.7963" stroke-linecap="null" stroke-linejoin="null" stroke-dasharray="null" stroke-width="4" fill="#b35000" stroke="#000000"/>
  <rect id="svg_23" ry="3" rx="3" height="55" width="35" y="554.58406" x="1.74117" stroke-linecap="null" stroke-linejoin="null" stroke-dasharray="null" stroke-width="4" fill="#b35000" stroke="#000000"/>
  <rect id="svg_24" ry="3" rx="3" height="55" width="35" y="555.14656" x="72.94698" stroke-linecap="null" stroke-linejoin="null" stroke-dasharray="null" stroke-width="4" fill="#b35000" stroke="#000000"/>
 </g>
</svg>