<svg width="300" height="300" xmlns="http://www.w3.org/2000/svg" xmlns:svg="http://www.w3.org/2000/svg">
 <!-- Created with SVG-edit - https://github.com/SVG-Edit/svgedit-->
 <g class="layer">
  <title>Layer 1</title>
  <path fill="none" stroke="#ffffff" stroke-width="9" stroke-dasharray="null" stroke-linejoin="null" stroke-linecap="round" id="svg_10" d="m70.888885,239.777771c0.911118,0 1.803558,0 2.656151,0c0.848152,0 1.78849,-0.018509 2.677185,0c0.889473,0.018524 1.81694,0.160019 2.543854,0.233932c0.970245,0.098648 1.843666,0.18956 2.826515,0.210526c0.889465,0.018982 1.628426,0.178421 2.513893,0.21759c0.904495,0.040009 1.863503,-0.027237 2.680557,0.009262c0.881828,0.039398 1.881294,0.182343 2.584221,0.236252c0.968712,0.07428 1.842438,0.254105 2.659477,0.346405c0.956818,0.108093 1.87677,0.061005 2.759743,0.157745c0.878685,0.096268 1.653961,0.143692 2.641258,0.143845c0.892998,0.000137 1.781891,0 2.652374,0c0.804482,0 1.804771,0 2.693665,0c0.888885,0 1.777779,0 2.555557,0c1,0 1.888885,0.000015 2.779778,0c0.985291,-0.000015 1.707878,0.016769 2.718628,-0.078369c0.680847,-0.064087 1.618965,-0.122009 2.609146,-0.206955c0.749001,-0.064255 1.752144,-0.113068 2.643295,-0.208344c0.847305,-0.090591 1.791885,-0.318512 2.640556,-0.376251c0.866653,-0.05896 1.785645,0.030945 2.697487,-0.068146c0.895538,-0.097321 1.775658,-0.233704 2.651848,-0.395264c0.833916,-0.153763 1.699066,-0.21991 2.600594,-0.222229c0.88089,-0.002274 1.769775,0 2.639709,0c0.887802,0 1.801361,0 2.666656,0c0.907852,0 1.777786,0 2.640182,0c0.902603,0 1.841599,0 2.757751,0c0.717026,0 1.727966,-0.029297 2.621033,0.00238c0.890106,0.03157 1.839737,0.19046 2.666672,0.219849c0.963058,0.034241 1.671112,0.172577 2.662033,0.328705c0.896866,0.141312 1.782104,0.115738 2.634262,0.115738c0.925919,0 1.818039,-0.048782 2.740738,0.037033c0.733658,0.068237 1.682587,0.184692 2.514969,0.185196c1.003555,0.00061 1.892441,0 2.781326,0c0.851852,0 1.755554,0 2.630219,0c0.881897,0 1.769775,0 2.645966,0c0.831375,0 1.83493,0 2.723816,0c0.925919,0 1.642258,0 2.570663,0c0.850372,0 1.75882,0 2.799713,0c0.716324,0 1.625778,0 2.59259,0c0.903702,0 1.778366,0 2.660248,0c0.875198,0 1.784195,0 2.668045,0c0.930969,0 1.794067,0 2.673813,0c0.879379,0 1.812698,0 2.679367,0c0.866669,0 1.800003,0 2.638824,0c0.901917,0 1.786713,0.041962 2.716736,0c0.869324,-0.03923 1.733337,-0.221039 2.552292,-0.222229c0.966232,-0.001389 1.866074,0 2.725342,0c0.815994,0 1.776337,0.000534 2.722366,0c0.866669,-0.000504 1.721497,-0.174881 2.596741,-0.222214c0.846466,-0.045776 1.714371,0 2.684143,0c0.871414,0 1.720901,0.108383 2.674667,-0.00238c0.87999,-0.102188 1.751755,-0.148407 2.578079,-0.238815c0.944855,-0.103378 1.796738,-0.203262 2.647705,-0.203262c0.907547,0 1.82309,-0.044754 2.685333,0.06311c0.900665,0.112671 1.731506,0.127853 2.630219,0.159119c0.90773,0.03157 1.772156,0.222229 2.658661,0.222229c0.915894,0 1.777756,0 2.689896,0c0.887894,0 1.781525,0 2.665665,0c0.889893,0 1.666962,-0.222076 2.561188,-0.222229c0.883255,-0.000137 1.673737,-0.209518 2.549927,-0.222229l0.778076,-0.221924"/>
  <path fill="none" stroke="#ffffff" stroke-width="9" stroke-dasharray="null" stroke-linejoin="null" stroke-linecap="round" id="svg_12" d="m228,237.555557c0.311111,-0.824005 0.534363,-1.6884 0.661041,-2.575409c0.12471,-0.873199 0.340195,-1.655609 0.515732,-2.566452c0.1716,-0.890457 0.156555,-1.769257 0.156555,-2.709991c0,-0.777481 0,-1.773926 0,-2.603119c0,-0.928436 0,-1.860916 0,-2.698212c0,-0.940491 0,-1.777786 0,-2.718262c0,-0.839661 -0.087509,-1.694763 -0.195221,-2.639664c-0.098221,-0.861588 -0.209503,-1.718033 -0.249222,-2.600006c-0.039566,-0.878479 -0.174896,-1.729752 -0.222214,-2.666672c-0.043655,-0.864563 0,-1.814804 0,-2.643433c0,-0.860855 0,-1.791443 0,-2.689896c0,-0.838806 0,-1.738068 0,-2.598816c0,-0.94722 0,-1.809189 0,-2.67836c0,-0.945038 0,-1.811707 0,-2.686371c0,-0.881897 0,-1.769791 0,-2.658676c0,-0.87619 0,-1.82222 0,-2.685623c0,-0.869339 0,-1.807892 0,-2.683258c0,-0.856598 -0.058289,-1.72377 -0.159119,-2.560898c-0.115814,-0.961624 -0.136154,-1.831329 -0.248291,-2.781326c-0.101685,-0.861481 0.01001,-1.730026 -0.100143,-2.596451c-0.111526,-0.877243 -0.159119,-1.741516 -0.159119,-2.603546c0,-0.972153 -0.025284,-1.776779 -0.210526,-2.699417c-0.161041,-0.802094 -0.233765,-1.700882 -0.233917,-2.570511c-0.000168,-0.99675 0,-1.868042 0,-2.732452c0,-0.88652 0.04071,-1.762711 0.143845,-2.596619c0.115097,-0.930573 0.220779,-1.805084 0.292603,-2.67952c0.077637,-0.945313 -0.057678,-1.788208 0.009003,-2.700455c0.063995,-0.875595 0.221222,-1.776627 0.221222,-2.654953c0,-0.871567 0,-1.721634 0,-2.631744c0,-0.937592 0.060699,-1.832794 -0.000046,-2.685074c-0.064026,-0.898163 -0.222183,-1.728638 -0.222183,-2.636551c0,-0.872559 0.071564,-1.805191 -0.000031,-2.70163c-0.064056,-0.801987 -0.222198,-1.723785 -0.222198,-2.577744c0,-0.933334 0,-1.800003 0,-2.666672c0,-0.940445 0.082855,-1.825089 0.195236,-2.706375c0.106155,-0.832367 0.026993,-1.743698 0.026993,-2.666656c0,-0.848892 0,-1.727554 0,-2.626968c0,-0.888596 0,-1.777771 0,-2.666672l0,-0.888885l0,-0.888885l0.222229,-0.800003"/>
  <path fill="none" stroke="#ffffff" stroke-width="9" stroke-dasharray="null" stroke-linejoin="null" stroke-linecap="round" fill-opacity="0.2" id="svg_14" d="m70.666664,239.333328c0.037041,-0.888885 0.328857,-1.694153 0.43174,-2.64444c0.093292,-0.861725 0.012711,-1.800003 0.012711,-2.668671c0,-0.821396 0,-1.749359 0,-2.616669c0,-0.906662 0,-1.777771 0,-2.666656c0,-0.933334 0,-1.81308 0,-2.692444c0,-0.896301 -0.052567,-1.75383 0.000999,-2.689896c0.047272,-0.826065 0.221222,-1.746597 0.221222,-2.629807c0,-0.813934 -0.009354,-1.747314 0,-2.639114c0.009483,-0.90416 0.212738,-1.774078 0.222221,-2.630676c0.010201,-0.921265 -0.0755,-1.796371 0.037033,-2.751251c0.099854,-0.847229 0.282379,-1.679688 0.388443,-2.614822c0.097176,-0.85675 0.009048,-1.738159 0.018967,-2.64444c0.009483,-0.866821 0.208717,-1.733017 0.222221,-2.599991c0.014236,-0.914276 0,-1.785782 0,-2.688904c0,-0.866653 0.101532,-1.767654 0.203262,-2.656296c0.105537,-0.921875 -0.009964,-1.780045 0.018959,-2.636444c0.03157,-0.934937 0.21991,-1.756317 0.222221,-2.649109c0.002419,-0.932816 0,-1.740814 0,-2.646881c0,-0.907669 0,-1.793671 0,-2.744598c0,-0.866669 0,-1.674667 0,-2.543854c0,-1.011703 0,-1.875992 0,-2.759842c0,-0.851852 0,-1.807419 0,-2.671707c0,-0.891296 0,-1.746231 0,-2.672302c0,-0.84581 -0.088203,-1.715897 -0.316742,-2.58252c-0.232246,-0.880676 -0.305389,-1.786957 -0.413033,-2.632584c-0.113472,-0.891418 -0.380493,-1.684326 -0.525185,-2.603851c-0.13871,-0.8815 -0.078369,-1.741333 -0.078369,-2.653046c0,-0.902512 0,-1.754959 0,-2.661331c0,-0.908142 -0.006508,-1.731094 0,-2.663376c0.006355,-0.910202 0.221031,-1.76358 0.222221,-2.675293c0.001114,-0.858063 0,-1.738953 0,-2.635818c0,-0.883286 0,-1.789322 0,-2.695145c0,-0.862808 0,-1.741333 0,-2.638184c0,-0.891296 0,-1.769806 0,-2.677216c0,-0.870377 -0.037476,-1.771317 0.078369,-2.665665c0.108833,-0.84021 0.267357,-1.754669 0.143852,-2.634933c-0.109863,-0.783035 -0.207535,-1.668442 -0.316742,-2.511108c-0.112595,-0.868759 -0.127701,-1.755554 -0.127701,-2.616592c0,-0.916748 0,-1.805634 0.221924,-2.58371l0.000298,-0.888596"/>
  <path fill="none" stroke="#ffffff" stroke-width="9" stroke-dasharray="null" stroke-linejoin="null" stroke-linecap="round" fill-opacity="0.2" id="svg_15" d="m72.444443,133.111115c0.844444,-0.221924 1.603416,-0.592178 2.35556,-1.022232c0.751945,-0.429947 1.495972,-0.833023 2.266663,-1.155838c0.837975,-0.350998 1.630615,-0.605942 2.26667,-1.22934c0.587311,-0.575623 1.054779,-1.344467 1.476181,-2.093185c0.43338,-0.770012 0.921844,-1.515663 1.412704,-2.170708c0.495537,-0.661278 1.014259,-1.370392 1.524742,-2.067665c0.519493,-0.709587 1.048759,-1.388626 1.475258,-2.149925c0.437454,-0.780853 0.747414,-1.584541 1.135704,-2.372147c0.395119,-0.801468 0.686104,-1.601532 0.997597,-2.477036c0.289963,-0.814995 0.777199,-1.578011 0.866699,-2.450226c0.091934,-0.895882 0,-1.78978 0,-2.612701c0,-0.932335 0,-1.796631 0,-2.732338c0,-0.888885 -0.04744,-1.779045 0,-2.663406c0.047325,-0.882317 0.237762,-1.736595 0.439819,-2.581032c0.203094,-0.848785 0.226845,-1.730965 0.226845,-2.629631c0,-0.881187 0.146202,-1.726807 0.222229,-2.613815c0.073318,-0.855446 0.40522,-1.731712 0.444443,-2.610519c0.038536,-0.863396 0,-1.784851 0,-2.679367c0,-0.888893 0,-1.782524 0,-2.619858c0,-0.899254 -0.095757,-1.813156 0.018959,-2.694809c0.114586,-0.880608 0.516731,-1.676857 0.635002,-2.597633c0.108765,-0.846771 0.012703,-1.776588 0.012703,-2.642258c0,-0.912109 0,-1.731071 0,-2.646629c0,-0.932152 0,-1.82785 0,-2.69841c0,-0.900406 -0.283028,-1.7472 -0.444443,-2.563515c-0.168854,-0.853958 -0.295822,-1.709373 -0.40741,-2.596153c-0.111069,-0.882698 -0.253548,-1.712585 -0.418365,-2.541031c-0.183571,-0.922707 -0.063118,-1.777779 -0.063118,-2.666374c0,-0.938965 0,-1.829628 0,-2.700592c0,-0.889889 0,-1.793926 0,-2.677185c0,-0.888592 -0.128387,-1.7924 0.037041,-2.674076c0.150146,-0.80024 0.409592,-1.614239 0.629631,-2.437035c0.219734,-0.821655 0.316742,-1.688889 0.666367,-2.44474l0.000298,-0.888592l0.21759,-0.822224l0.412041,-0.777779"/>
  <path fill="none" stroke="#ffffff" stroke-width="9" stroke-dasharray="null" stroke-linejoin="null" stroke-linecap="round" fill-opacity="0.2" id="svg_16" d="m227.333328,133.333328c-0.777771,-0.333328 -1.484665,-0.735504 -2.217484,-1.355591c-0.670441,-0.567291 -1.308945,-1.111252 -1.8237,-1.794327c-0.546219,-0.724823 -1.197189,-1.305191 -1.75885,-2.032593c-0.544281,-0.704895 -1.0979,-1.325577 -1.533295,-2.113777c-0.413239,-0.7481 -0.893005,-1.483566 -1.370377,-2.259262c-0.474915,-0.771706 -0.895264,-1.504547 -1.318512,-2.293633c-0.417953,-0.779205 -0.899353,-1.475983 -1.382523,-2.244408c-0.459854,-0.731354 -0.983688,-1.471542 -1.369186,-2.217216c-0.401993,-0.777573 -0.726898,-1.602654 -1.016556,-2.433037c-0.297287,-0.852219 -0.571274,-1.656479 -0.653961,-2.552444c-0.081757,-0.885902 -0.222153,-1.699097 -0.438812,-2.537186c-0.225418,-0.872017 -0.203201,-1.75946 -0.227844,-2.653038c-0.024612,-0.892273 -0.381851,-1.732666 -0.587296,-2.568634c-0.20842,-0.848045 0.025543,-1.803055 -0.079681,-2.671074c-0.102371,-0.84446 -0.221924,-1.718224 -0.221924,-2.584885c0,-0.90815 0,-1.837036 0,-2.710114c0,-0.872299 0.101013,-1.784454 -0.00029,-2.686035c-0.098236,-0.874191 -0.395599,-1.672531 -0.444153,-2.584595c-0.046524,-0.873726 -0.219986,-1.713356 -0.444138,-2.571259c-0.217987,-0.834343 -0.222519,-1.726372 -0.222519,-2.616257c0,-0.91011 0.059006,-1.765129 0.21759,-2.631744c0.15744,-0.860382 0.362137,-1.725365 0.449066,-2.60952c0.086975,-0.884621 0,-1.762627 0,-2.657143c0,-0.888893 0,-1.777817 0,-2.620041c0,-0.928108 0.048645,-1.818878 -0.06311,-2.694626c-0.111084,-0.870598 -0.159103,-1.726227 -0.159103,-2.645523c0,-0.858482 0.07402,-1.80172 -0.037048,-2.662033c-0.111618,-0.864571 -0.19136,-1.723839 -0.185181,-2.600006c0.006363,-0.900658 0.312866,-1.695248 0.425476,-2.618664c0.107666,-0.882847 0.060806,-1.762783 0.241226,-2.630516c0.172455,-0.829399 0.444412,-1.669334 0.444412,-2.528595c0,-0.888889 0.115067,-1.816803 -0.222229,-2.622223c-0.331985,-0.792721 -0.644821,-1.647762 -1.124741,-2.364147c-0.44249,-0.660519 -1.097473,-1.302517 -1.638809,-1.963554l-0.658661,-0.452446l-0.666672,-0.442074"/>
  <path fill="none" stroke="#ffffff" stroke-width="9" stroke-dasharray="null" stroke-linejoin="null" stroke-linecap="round" fill-opacity="0.2" id="svg_17" d="m91.111115,48.888889c0.911148,0 1.799995,0 2.688889,0c0.888885,0 1.777771,0 2.666664,0c0.888885,0 1.777779,0 2.666664,0c0.888893,0 1.777779,0 2.666672,0c0.888885,0 1.777771,0 2.666664,0c0.888885,0 1.755692,0.110157 2.599998,0.222221c0.881165,0.116959 1.645134,0.332409 2.511108,0.444447c0.881546,0.114052 1.777779,-0.000019 2.666672,0c0.888847,0.000015 1.677063,0.222919 2.162964,0.925922c0.464516,0.672058 0.420807,1.56855 0.530663,2.429668c0.111832,0.876633 0.206169,1.725079 0.316895,2.57774c0.112061,0.862957 0.087029,1.750961 0.300591,2.600002c0.211868,0.842323 0.539742,1.656891 0.665665,2.511108c0.129631,0.879387 0.000999,1.763557 0.000999,2.652447c0,0.903111 0,1.821629 0,2.666668c0,0.903107 0.122002,1.75322 0.222221,2.636444c0.098236,0.865776 0.336578,1.694374 0.444443,2.600296c0.104187,0.875008 0.120193,1.740868 0,2.658958c-0.109222,0.834274 -0.554573,1.681541 -0.666664,2.523148c-0.116745,0.876518 -0.002312,1.7696 0,2.662041c0.002319,0.893524 0.206215,1.737335 0.425781,2.581039c0.224594,0.863029 0.52475,1.655067 0.748444,2.52652c0.214806,0.836838 0.413132,1.660156 0.622223,2.533035c0.217278,0.907043 0.491333,1.705231 0.858513,2.525482c0.351196,0.784546 0.805321,1.514839 1.38208,2.204292c0.522606,0.624718 0.946396,1.362358 1.45285,1.961967c0.536209,0.634834 1.158012,1.238701 1.665367,1.905296c0.507462,0.66674 0.947411,1.4086 1.560631,2.068741c0.563431,0.606544 1.082993,1.157127 1.795219,1.661888c0.697227,0.494133 1.397362,0.897034 2.08889,1.397812c0.717484,0.519569 1.391556,1.05442 2.182404,1.411705c0.808441,0.365227 1.634293,0.600677 2.506485,0.761185c0.899429,0.16552 1.681778,0.467033 2.488892,0.798996c0.826355,0.339882 1.548645,0.794182 2.392883,1.169891c0.810059,0.360497 1.484772,0.885742 2.296005,1.269966c0.770767,0.365051 1.600006,0.666626 2.461044,0.666626c0.91774,0 1.810394,0.049103 2.627838,0.333336c0.851883,0.296211 1.745819,0.383194 2.565048,0.604736c0.875946,0.236877 1.699783,0.468124 2.583099,0.580444c0.84584,0.107552 1.701904,0.255264 2.58519,0.259262c0.88858,0.004021 1.735687,-0.163033 2.566071,-0.444443c0.796616,-0.269966 1.59317,-0.635536 2.328445,-1.069923c0.780045,-0.460831 1.407593,-0.947563 2.216599,-1.171265c0.838974,-0.231995 1.666687,-0.419106 2.555557,-0.425476c0.886765,-0.006355 1.655502,-0.322838 2.333328,-0.666672c0.788986,-0.400223 1.45607,-0.770515 2.202194,-1.099403c0.799881,-0.352585 1.505859,-0.633408 2.242249,-1.078667c0.778198,-0.470535 1.415375,-0.938919 2.093628,-1.399704c0.686462,-0.466362 1.208725,-1.073509 1.81749,-1.61985c0.62912,-0.564606 1.235504,-1.190529 1.701584,-1.846817c0.486023,-0.684372 1.02005,-1.29982 1.399002,-2.054962c0.381683,-0.760597 0.742706,-1.509445 1.191559,-2.20845c0.445435,-0.693687 0.595825,-1.546265 0.749039,-2.406517c0.13945,-0.782982 0.33873,-1.646767 0.742218,-2.366516c0.409271,-0.730049 1.152832,-1.212593 1.794373,-1.696892c0.670273,-0.505989 0.838913,-1.37854 1.037033,-2.222221c0.195938,-0.834389 0.274185,-1.713974 0.426376,-2.559113c0.160873,-0.893341 0.535614,-1.712151 0.647705,-2.547256c0.11293,-0.841347 0.097794,-1.738205 0.209518,-2.595222c0.113998,-0.874504 0.19165,-1.718292 0.234924,-2.635002c0.042694,-0.90451 0.094391,-1.753448 0.222229,-2.641182c0.112259,-0.77951 0.351227,-1.635864 0.444443,-2.444443c0.101791,-0.883041 0.04007,-1.778679 0,-2.666672c-0.03923,-0.869316 -0.240692,-1.72789 -0.222229,-2.614811c0.018524,-0.889469 0.237411,-1.733265 0.444443,-2.522076c0.225769,-0.860161 0.222229,-1.751999 0.222229,-2.640888c0,-0.883259 -0.04007,-1.778683 0,-2.666668c0.03923,-0.869316 0.249435,-1.663803 0.444443,-2.533333c0.182343,-0.813072 0.597336,-1.566059 1.246811,-1.947556c0.775284,-0.455395 1.54715,-0.680237 2.385925,-0.906406c0.824768,-0.222393 1.717957,-0.318916 2.545044,-0.542778c0.814224,-0.220375 1.733322,-0.203259 2.622223,-0.203259c0.888885,0 1.786362,0.123287 2.666656,0c0.801086,-0.112194 1.535004,-0.558681 2.377777,-0.666668c0.881699,-0.112972 1.777786,0 2.666672,0l0.785187,-0.259258l0.77037,-0.185184l0.82785,-0.127705"/>
  <path fill="none" stroke="#ffffff" stroke-width="9" stroke-dasharray="null" stroke-linejoin="null" stroke-linecap="round" fill-opacity="0.2" id="svg_18" d="m75.333336,147.555557c0.933334,0 1.822258,0 2.624588,0c0.930962,0 1.790924,0.14534 2.713371,0.21759c0.872337,0.068329 1.780945,-0.081528 2.662041,0.041672c0.837555,0.117111 1.650192,0.498932 2.533333,0.610657c0.882057,0.111588 1.782516,0.018967 2.627853,0.018967c0.908737,0 1.821327,0 2.691772,0c0.825226,0 1.74704,0 2.662964,0c0.827927,0 1.747398,-0.168121 2.647629,-0.222214c0.844536,-0.050735 1.716064,-0.304077 2.631706,-0.41745c0.80761,-0.100006 1.690666,-0.027008 2.644554,-0.027008c0.888893,0 1.78241,0 2.671295,0c0.833183,0 1.777779,0 2.666672,0c0.884178,0 1.784592,0 2.640884,0c0.889183,0 1.778076,0 2.692444,0c0.888893,0 1.777779,0 2.666672,0c0.888885,0 1.777771,0 2.666664,0c0.888885,0 1.701973,0.170898 2.555557,0.444458c0.770309,0.246872 1.554779,0.467407 1.666664,1.333328c0.110641,0.856293 0,1.752289 0,2.666672c0,0.863098 0.066406,1.783981 -0.049187,2.66188c-0.110298,0.837677 -0.347923,1.689651 -0.395256,2.526413c-0.052124,0.921326 0.015152,1.807861 0.222221,2.656143c0.199867,0.818771 0.443939,1.64444 0.444443,2.53334c0.000496,0.888885 -0.358017,1.679047 -0.572144,2.519989c-0.218399,0.857697 0.000023,1.737198 -0.113487,2.613342c-0.111595,0.861359 -0.100868,1.713776 0.010963,2.577774c0.114105,0.881561 0.153381,1.789734 0.008003,2.666672c-0.135002,0.814377 -1.022224,1.022217 -1.91111,1.022217c-0.894524,0 -1.75882,0 -2.648003,0c-0.907555,0 -1.751968,-0.218216 -2.640892,-0.222229c-0.891251,-0.004013 -1.777779,0 -2.666664,0c-0.888885,0 -1.787857,-0.133453 -2.666664,0c-0.8022,0.121826 -1.602783,0.4832 -2.463112,0.666672c-0.851341,0.181564 -1.715988,0.226151 -2.533928,0.444153c-0.846336,0.225571 -1.736298,0.222519 -2.610962,0.222519c-0.892593,0 -1.779083,0.005432 -2.632889,-0.203262c-0.854118,-0.208771 -1.703232,-0.351913 -2.584892,-0.463409c-0.878334,-0.111069 -1.751999,0 -2.666664,0c-0.88533,0 -1.777481,0 -2.666367,0c-0.863411,0 -1.752296,0 -2.663445,0c-0.888855,0 -1.755524,0 -2.666634,0c-0.903702,0 -1.729332,0.136261 -2.561188,0.357925c-0.826653,0.220276 -1.622612,0.722153 -2.490662,0.93837c-0.833588,0.207642 -1.723557,0.256897 -2.614815,0.259262l-0.870224,0"/>
  <path d="m226.628576,193.48572c-0.914291,0 -1.721619,0.073273 -2.605331,0.204559c-0.861084,0.127914 -1.797714,0.081116 -2.712006,0.081146c-0.860229,0.000015 -1.685654,0.001251 -2.682663,0.121521c-0.85881,0.103607 -1.704636,0.131042 -2.610962,0.165482c-0.870224,0.033081 -1.826599,0.220154 -2.589417,0.308426c-0.908371,0.105118 -1.799606,0.258743 -2.692581,0.261719c-0.919281,0.003067 -1.792755,0 -2.649902,0c-0.942856,0 -1.800003,0 -2.657135,0c-0.942856,0 -1.794052,0 -2.685333,0c-0.917725,0 -1.774857,0 -2.698334,0c-0.916855,0 -1.768341,0 -2.629669,0c-0.876953,0 -1.838852,0 -2.686859,0c-0.956955,0 -1.836517,0 -2.671234,0c-0.914246,0 -1.806152,0 -2.685715,0c-0.91301,0 -1.787766,0 -2.628571,0c-0.938293,0 -1.795441,0 -2.733337,0c-0.866669,0 -1.75238,0 -2.638092,0c-0.885712,0 -1.887878,-0.438965 -2.65715,0c-0.634125,0.361847 -0.371429,1.47847 -0.371429,2.384949c0,0.873474 0,1.793716 0,2.643616c0,0.857147 0,1.774246 0,2.694489c0,0.895996 -0.085358,1.738358 -0.269379,2.633331c-0.18248,0.887451 -0.300522,1.711044 -0.302048,2.530609c-0.001755,0.941574 0.10495,1.809494 -0.047623,2.779678c-0.135895,0.86412 -0.238083,1.71199 -0.238083,2.569138c0,0.935623 0,1.821335 0,2.707047c0,0.885712 0,1.771423 0,2.657135c0,0.885727 -0.174454,1.788239 0,2.685715c0.150772,0.775589 1.142853,0.857147 2.028564,0.857147c0.885712,0 1.766815,0.025375 2.603043,0.1642c0.896835,0.14888 1.753342,0.12088 2.658676,0.121521c0.896179,0.000641 1.709702,0.28273 2.571426,0.285706c0.947815,0.003265 1.802658,0 2.709717,0c0.857132,0 1.764191,0 2.658417,0c0.877197,0 1.79567,0 2.631866,0c0.881516,0 1.795425,0.000015 2.703613,0c0.92038,-0.000031 1.712067,-0.214066 2.634628,-0.285706c0.889175,-0.069046 1.774521,0 2.65123,0c0.906723,0 1.744446,-0.073868 2.621002,-0.269379c0.84436,-0.188324 1.725311,-0.196548 2.556381,-0.326431c0.9263,-0.14476 1.795425,-0.261337 2.691666,-0.261337c0.848389,0 1.783005,0 2.66214,0c0.838196,0 1.748581,0 2.662521,0c0.84082,0 1.75206,0 2.698013,0c0.861282,0 1.749069,-0.15419 2.657089,0.003052c0.836029,0.144775 1.628571,0.533661 2.513901,0.568756l0.74324,0.285339l0.914291,0" id="svg_6" fill-opacity="0.2" stroke-linecap="round" stroke-linejoin="null" stroke-dasharray="null" stroke-width="9" stroke="#ffffff" fill="none"/>
  <path d="m76.222221,194.222229c1.111115,0 1.969963,-0.014587 2.842072,0.094513c0.900673,0.112671 1.756683,0.136429 2.624596,0.255402c0.844322,0.115738 1.647842,0.433853 2.599998,0.539001c0.799072,0.088242 1.667084,0.344543 2.504593,0.463074c0.862915,0.122116 1.802338,0.203049 2.720001,0.203552c0.930962,0.000504 1.796631,0 2.638519,0c0.93589,0 1.796738,0.000488 2.699852,0c0.903702,-0.000504 1.710251,-0.097824 2.564743,-0.227844c0.915459,-0.139297 1.733475,-0.277542 2.608887,-0.375702c0.992813,-0.111328 1.891266,-0.059113 2.752296,-0.06311c0.861069,-0.004013 1.698006,-0.182724 2.581329,-0.221924c0.995178,-0.044174 1.852592,-0.000305 2.774223,-0.000305c0.862038,0 1.733635,0 2.62252,0c0.932442,0 1.796738,0 2.628738,0c0.931221,0 1.837631,0 2.726524,0c0.88533,0 1.741661,-0.02179 2.594368,-0.222214c0.870155,-0.204529 2.023849,-0.775543 2.608887,-0.158813c0.594963,0.627197 0.018456,1.769333 0.018967,2.677322c0.000504,0.881485 0.222221,1.725937 0.222221,2.614822c0,0.888885 0,1.755554 0,2.666656c0,0.888901 0,1.777786 0,2.669937c0,0.863403 0,1.752289 0,2.636444c0,0.867844 0,1.782516 0,2.671402c0,0.888885 0,1.777786 0,2.661926c0,0.867859 0.10199,1.831284 -0.159111,2.626663c-0.276299,0.84169 -0.83429,1.485077 -1.155258,2.311417c-0.321915,0.828766 0.063843,1.924454 -0.667259,2.240891c-0.749268,0.324295 -1.681488,0.159103 -2.57856,0.159103c-0.880997,0 -1.768097,-0.034103 -2.627113,-0.143845c-0.892128,-0.113968 -1.745872,-0.291107 -2.595108,-0.300598c-0.92894,-0.010376 -1.8209,-0.129974 -2.700851,0.007996c-0.874741,0.137146 -1.689812,0.413818 -2.550667,0.646973c-0.827187,0.22403 -1.67363,0.530502 -2.521629,0.641327c-0.882156,0.11528 -1.666664,0.259262 -2.552589,0.259262c-0.850967,0 -1.775246,0.004532 -2.628151,-0.203552c-0.881851,-0.215149 -1.766701,-0.231445 -2.603554,-0.444153c-0.833527,-0.211853 -1.726814,-0.24118 -2.634369,-0.24118c-0.875854,0 -1.810638,-0.111969 -2.692451,0c-0.831627,0.105606 -1.650772,0.32785 -2.55555,0.439804c-0.878647,0.108734 -1.781334,0.004639 -2.670227,0.004639c-0.881775,0 -1.777779,0 -2.658478,0c-0.888893,0 -1.777779,0 -2.67485,0c-0.889969,0 -1.774223,0 -2.663116,0l-0.888885,0" id="svg_19" fill-opacity="0.2" stroke-linecap="round" stroke-linejoin="null" stroke-dasharray="null" stroke-width="9" stroke="#ffffff" fill="none"/>
  <path d="m223.333328,147.777771c-1.046219,0.127716 -1.826294,0.163635 -2.711105,0.241196c-0.9151,0.0802 -1.743698,0.202072 -2.716736,0.203262c-0.878448,0.001068 -1.868454,0 -2.616302,0c-1.029922,0 -1.849487,0 -2.737183,0c-0.915558,0 -1.797607,-0.073425 -2.658478,0.004623c-0.881287,0.079895 -1.804337,0.21759 -2.673492,0.21759c-0.923737,0 -1.753372,0 -2.669113,0c-0.86203,0 -1.790909,-0.083786 -2.699066,0.037033c-0.824799,0.109726 -1.674377,0.161636 -2.568588,0.185196c-0.933395,0.024597 -1.801788,0.222214 -2.658676,0.222214c-0.899261,0 -1.805618,0 -2.669067,0c-0.854935,0 -1.783371,0 -2.666626,0c-0.900406,0 -1.810593,0.059402 -2.693634,0c-0.827713,-0.055679 -1.730331,-0.324707 -2.556442,-0.436447c-0.880905,-0.119156 -1.816589,-0.007996 -2.666672,-0.007996c-0.888885,0 -1.892578,-0.359604 -2.705475,0c-0.604233,0.267303 -0.444443,1.359116 -0.444443,2.258667c0,0.863968 0,1.734512 0,2.625595c0,0.893524 0,1.775589 0,2.710999c0,0.853821 0,1.731262 0,2.664001c0,0.896301 0,1.785187 0,2.674072c0,0.888885 0,1.77037 0,2.615112c0,0.891373 -0.104721,1.783997 0,2.707855c0.098236,0.866623 0.405212,1.687119 0.444443,2.565918c0.039627,0.888 0.453659,1.764633 0.222214,2.644455c-0.20401,0.775513 -0.775772,1.643143 -0.133331,1.866653c0.839523,0.292084 1.777786,0 2.629333,0c0.920593,0 1.801163,0.147049 2.685043,-0.0634c0.864105,-0.20575 1.657776,-0.381042 2.587219,-0.381042c0.845963,0 1.777771,0 2.623734,0c0.934235,0 1.823715,0.013351 2.687454,0.195267c0.851929,0.179428 1.767365,0.249176 2.565292,0.249176c0.969482,0 1.840729,0.001495 2.688599,0.111115c0.866501,0.11203 1.799988,0.111115 2.662033,0.111115c0.934708,0 1.78241,0 2.745361,0c0.814819,0 1.745651,0.03598 2.587967,0c0.918259,-0.039215 1.823303,-0.222229 2.660782,-0.222229c0.921326,0 1.765076,0 2.681808,0c0.843079,0 1.773148,0 2.685257,0c0.84375,0 1.765076,0 2.60257,0c0.929764,0 1.859848,0 2.702911,0l0.893524,0l0.892151,0" id="svg_20" stroke-linecap="round" stroke-linejoin="null" stroke-dasharray="null" stroke-width="9" stroke="#ffffff" fill="none"/>
 </g>
</svg>