<?xml version="1.0"?>
<svg width="300" height="300" xmlns="http://www.w3.org/2000/svg" xmlns:svg="http://www.w3.org/2000/svg">
 <!-- Created with SVG-edit - https://github.com/SVG-Edit/svgedit-->
 <g class="layer" transform="rotate(0  150 150)">
  <title>Layer 1</title>
  
  <path d="m104.505692,62.053978c1,0.166664 1.602951,0.672321 2.483994,0.916c0.842453,0.233009 1.721092,0.523537 2.400002,0.799999c0.911125,0.371025 1.717339,0.283333 2.716003,0.284c0.799995,0.000534 1.798668,0 2.563995,0c1.083336,0 2.00267,0 2.836006,0c0.978661,0 1.752663,0 2.652664,0c0.863335,0 1.8265,0 2.64283,0c0.989838,0 1.804504,0 2.704506,0c0.799995,0 1.699997,0 2.599998,0c0.900002,0 1.817368,0.089481 2.425331,0.574665c0.624496,0.498375 1.587326,0.276707 2.453835,0.425335c0.839943,0.144073 1.109703,1.022884 0.531502,1.574665c-0.492477,0.469971 -1.658669,0.168842 -2.010666,0.782501c-0.419357,0.731094 0,1.742832 0,2.642834c0,0.799999 0,1.699997 0,2.599998c0,0.900002 0,1.800003 0,2.699997c0,0.900002 0,1.800003 0,2.700005c0,0.799995 0,1.699997 0,2.599998c0,0.900002 0,1.800003 0,2.704498c0,1.016838 0,1.695503 0,2.673836c0,0.937668 0.03183,1.792091 0.352661,2.678833c0.273315,0.755402 0.567688,1.538673 0.626503,2.342834c0.07296,0.997551 0.020836,1.799995 0.020836,2.599998c0,1.189331 0,1.914665 0,2.85833c0,1.041672 0,1.828339 0,2.54084c0,1.030167 -0.001892,2.000832 0,2.757996c0.002251,0.900009 -0.011154,1.665428 0.283997,2.641502c0.236961,0.78363 0.673294,1.713226 0.716003,2.701332c0.038864,0.899162 0.417557,1.454475 0.878494,2.121498c0.504211,0.729645 0.417458,1.835106 0.982834,2.167831c0.920959,0.541992 1.747208,0.599228 2.538666,1.036003c0.821671,0.453445 1.558289,0.808609 2.300003,1.222c0.763687,0.425636 1.532677,1.03492 2.325333,1.342003c0.723663,0.280357 1.674667,0.067833 2.47467,0.510666c0.800003,0.442833 1.781113,0.362679 2.447327,0.852669c0.684219,0.503235 1.452667,0.647331 2.352676,0.647331c0.899994,0 1.79982,0 2.674667,0c0.82666,0 1.725327,0 2.62532,0c0.879166,0 1.79364,0.254601 2.695511,-0.004501c0.767914,-0.220619 1.225143,-0.985085 2.104492,-0.995499c0.899948,-0.010658 1.798676,0 2.766663,0c0.833344,0 1.633759,0.027245 2.53334,0c0.944122,-0.028595 1.508774,-0.559441 2.178665,-1.221336c0.61676,-0.609398 1.149796,-1.154648 1.695999,-1.804001c0.534607,-0.635567 0.859848,-1.369095 1.341339,-2.173332c0.445206,-0.743614 0.791855,-1.37606 1.094666,-2.190666c0.272659,-0.733498 0.987076,-1.257988 0.989334,-2.1315c0.002258,-0.879166 -0.194901,-1.80085 0.001328,-2.677834c0.180573,-0.807045 0.843704,-1.307961 1.364838,-2.110329c0.369537,-0.568954 1.176666,-1.233833 1.643661,-1.700836c0.775497,-0.775497 1.305786,-1.309235 2.068832,-2.068665c0.467621,-0.465401 1.126587,-1.13475 2.087997,-1.921501c0.504456,-0.412811 1.322952,-0.965591 1.766342,-1.400002c0.760406,-0.745003 0.984116,-1.580658 1.067169,-2.578499c0.068405,-0.821732 0.746765,-1.558678 0.963821,-2.421501c0.219742,-0.873505 0.036011,-1.800003 0.036011,-2.699997c0,-0.900002 0.101028,-1.710526 -0.036011,-2.536003c-0.144745,-0.871964 -0.63324,-1.735237 -1.163986,-2.480003c-0.469818,-0.659256 -0.985535,-1.376579 -1.400009,-2.058662c-0.578735,-0.952408 -0.864166,-1.624031 -1.425323,-2.389336c-0.489334,-0.667358 -0.952316,-1.30748 -0.973343,-2.038666c-0.034119,-1.186241 -0.02449,-1.939621 -0.426666,-2.761333c-0.425842,-0.870056 -0.818909,-1.868149 -0.290665,-2.551998c0.484711,-0.627491 0.451004,-1.631451 1.073166,-2.026833c0.800995,-0.509029 1.823471,0.073479 2.621994,-0.078003c0.952576,-0.180706 1.456268,-0.961159 2.320847,-0.979164c0.899796,-0.018738 1.799988,0 2.699997,0c0.800003,0 1.699997,0 2.599991,0c0.900009,0 1.800003,0 2.695511,0c0.925995,0 1.804489,0 2.704498,0c0.800003,0 1.699997,0 2.599991,0c0.900009,0 1.800003,0 2.700012,0c0.899994,0 1.79982,0 2.699997,0c0.801331,0 1.429001,0.370621 2.221497,0.878498c0.746567,0.478436 1.717606,0.336727 1.778503,1.2215c0.061798,0.897877 0,1.700001 0,2.599998c0,0.900002 0,1.820831 0,2.784004c0,0.690666 0,1.754333 0,2.599998c0,0.916 0,1.715996 0,2.615997c0,0.936005 0,1.786667 0,2.546669c0,1.174667 0.000031,1.978668 0,2.528c-0.000092,1.303833 0.061874,1.999031 -0.085342,2.823997c-0.183044,1.025719 -0.543304,1.63002 -0.914658,2.568001c-0.310654,0.784676 -0.588959,1.638199 -0.714676,2.234665c-0.250076,1.186539 -0.273773,2.056824 -0.283997,2.828003c-0.01442,1.087906 0.075928,1.945412 -0.022171,2.791496c-0.112686,0.971924 -0.779327,1.627525 -0.958328,2.479172c-0.185181,0.880989 -0.02092,1.799995 -0.020828,2.699997c0.000092,0.899834 0.546661,1.470337 0.942825,2.157166c0.469849,0.814568 0.530869,1.392311 1.352676,1.647339c0.763077,0.236809 1.253418,0.94175 2.104492,1.42083c0.726624,0.409019 1.390488,0.918869 1.821503,1.674667c0.381577,0.669098 1.187851,1.290794 1.778503,1.900002c0.573212,0.591209 1.050049,1.430931 1.574661,2.02533c0.567871,0.643402 1.265228,0.764931 2.125336,1.031837c0.865952,0.268723 1.061996,1.4217 1.725327,1.90683c0.675293,0.493874 1.465302,1.025162 1.570175,1.736c0.137909,0.934731 0.558929,1.717621 1.225998,2.178505c0.729523,0.504044 1.735779,0.403488 1.778503,1.221497c0.046951,0.898773 0.483795,1.506241 0.914658,2.183998c0.505035,0.794434 -0.243042,2.00032 0.306671,2.594505c0.563843,0.609459 0.778671,1.221497 0.778671,2.121498c0,0.799995 0,1.699997 0,2.599998c0,0.900002 0,1.800003 0,2.699997c0,0.900002 0,1.800171 0,2.585335c0,0.78083 0,1.633507 0,2.7575c0,0.667007 0,1.378006 0,2.474503c0,1.060837 0,1.716507 0,2.600006c0,1.139664 0,1.973663 0,2.803497c0,0.965836 0,1.72583 0,2.645828c0,0.781494 0,1.823502 0,2.690506c0,0.890991 0,1.795502 0,2.658829c0,0.963165 0,1.884003 0,2.685333c0,0.965332 0,1.840332 0,2.485336c0,0.99733 0,1.813324 0,2.629333c0,1.222336 0,2.022324 0,2.935837c0,0.717499 0,1.757996 0,2.533493c0,1.048004 0,1.757507 0,2.610168c0,1.004501 0,1.804504 0,2.804504c0,0.799988 0,1.799988 0,2.599991c0,0.800003 0,1.804504 0,2.657166c0,0.964172 0,1.768173 0,2.590164c0,1.031006 0.040375,1.911819 -0.000168,2.931168c-0.02858,0.718704 -0.60405,1.526978 -0.833176,2.354843c-0.247162,0.893021 -0.164398,1.661331 -0.166656,2.697327c-0.001846,0.852005 0,1.794662 0,2.485336c0,0.983994 0,1.96666 0,2.77417c0,0.995163 0,1.911163 0,2.595169c0,0.950653 0,1.715988 0,2.719162c0,0.852661 0,1.816666 0,2.610168c0,0.775497 0,1.979996 0,2.753326c0,0.801331 0,1.817337 0,2.865341c0,0.713989 0,1.619324 0,2.587997c0,0.804001 0,1.625992 0,2.65683c0,0.859329 0,1.75383 0,2.636169c0,0.694672 0,1.685669 0,2.485672c0,0.999832 0,1.77916 0,2.91333c0,0.834 0,1.688004 0,2.58667c0,0.863998 0,1.735992 0,2.699997c0,0.899994 0,1.800003 0,2.699997c0,0.899994 0.499451,1.848389 0,2.61467c-0.385956,0.592148 -1.485336,0.285324 -2.210663,0.285324c-0.989502,0 -1.810181,0 -2.956009,0c-0.785995,0 -1.608002,0 -2.666672,0c-0.713989,0 -1.619339,0.006165 -2.588165,-0.000168c-0.814545,-0.005325 -1.688248,-0.020325 -2.578491,-0.166489c-0.906891,-0.148895 -1.493057,-0.364655 -2.400009,-0.549332c-1.192307,-0.242783 -1.810272,-0.209717 -2.699997,-0.393845c-1.219666,-0.252396 -1.806427,-0.596191 -2.420837,-0.910995c-0.638351,-0.327072 -1.996628,-0.969131 -2.736328,-1.226501c-0.759705,-0.264343 -1.549362,-0.499359 -1.944168,-0.636658c-1.204956,-0.419052 -1.99205,-0.769241 -2.777832,-1.095169c-0.761642,-0.315918 -1.847748,-0.716995 -2.536835,-0.851501c-0.9767,-0.190659 -1.642197,-0.178268 -3.005325,-0.390839c-0.73494,-0.114609 -1.480988,-0.290131 -2.225998,-0.483002c-1.089569,-0.282074 -1.764114,-0.505493 -2.731842,-0.774658c-0.614365,-0.170883 -1.819901,-0.410522 -2.731491,-0.495499c-0.62468,-0.058228 -1.280762,-0.070755 -2.674667,-0.310669c-0.754547,-0.129868 -1.526062,-0.322403 -2.31601,-0.516006c-1.199768,-0.294052 -1.996521,-0.503723 -2.79866,-0.677826c-0.797989,-0.173203 -1.196259,-0.265671 -2.400009,-0.399506c-0.798019,-0.088715 -1.600845,-0.109756 -2.399994,-0.173996c-1.201523,-0.096588 -2.001297,-0.219452 -2.789337,-0.383331c-0.777466,-0.161682 -2.244186,-0.563354 -2.925323,-0.762665c-0.649521,-0.190048 -1.573776,-0.481506 -2.485336,-0.634674c-0.899063,-0.151077 -1.837357,-0.178467 -2.485336,-0.250671c-1.0383,-0.115692 -1.75943,-0.263458 -2.817337,-0.490662c-0.643356,-0.138168 -1.837936,-0.3927 -2.555328,-0.420837c-0.905487,-0.035507 -1.828674,-0.004501 -2.501999,-0.004501c-1.306671,0 -2.132416,0.029129 -2.854675,-0.035995c-0.957031,-0.086288 -1.740356,-0.325043 -2.595993,-0.538666c-0.589249,-0.14711 -1.789459,-0.360397 -2.710167,-0.404495c-0.635818,-0.030457 -2.000565,-0.015198 -2.731834,-0.025345c-0.747437,-0.010376 -1.500107,-0.00795 -2.580666,-0.162155c-1.011818,-0.144394 -1.619812,-0.355011 -2.480003,-0.549332c-0.997292,-0.225281 -1.918701,-0.270248 -2.853333,-0.450668c-0.79306,-0.153091 -1.597702,-0.454544 -2.666664,-0.666672c-0.708534,-0.14061 -1.619324,-0.164413 -2.587837,-0.166672c-0.793495,-0.001846 -1.569,0 -2.610832,0c-0.773331,0 -1.737335,0 -2.488831,0c-0.796501,0 -2.022003,0 -2.668503,0c-1.010666,0 -1.810661,0 -2.810661,0c-0.800003,0 -1.600006,0 -2.6045,0c-0.852669,0 -1.81752,0.015518 -2.642174,-0.010666c-0.91571,-0.029083 -1.92173,-0.145874 -2.635994,-0.273331c-0.733925,-0.130966 -1.802673,-0.390762 -2.784004,-0.549332c-0.820114,-0.132523 -1.547958,-0.161331 -2.754662,-0.166672c-0.803993,-0.003555 -1.35334,0 -2.657173,0c-0.685493,0 -1.520164,0 -2.5215,0c-0.799995,0 -1.799995,0.000061 -2.599998,0c-0.999832,-0.000092 -1.823929,0.135925 -2.778831,-0.221497c-0.735802,-0.275406 -1.556992,-0.897247 -2.303833,-1.178497c-0.569435,-0.214432 -1.882713,-0.604706 -2.598671,-0.79866c-0.721397,-0.195419 -1.415337,-0.393539 -2.61866,-0.634674c-0.799133,-0.160141 -1.664055,-0.340118 -2.520836,-0.666672c-0.578766,-0.220596 -1.585197,-0.408783 -2.379166,-0.552658c-1.008682,-0.182785 -1.743996,-0.58403 -2.716003,-0.863342c-0.755581,-0.217117 -1.656975,-0.611237 -2.550667,-0.917328c-0.744713,-0.255066 -1.741508,-0.050079 -2.633331,-0.171173c-0.821213,-0.111511 -1.545162,-0.763321 -1.689335,-1.59549c-0.153645,-0.886856 -0.010666,-1.879166 -0.010666,-2.733337c0,-0.888 0,-1.866501 0,-2.645828c0,-0.999344 0,-1.716339 0,-2.65683c0,-0.848007 0,-1.711334 0,-2.728012c0,-0.837326 0,-1.802658 0,-2.482666c0,-0.839996 0,-1.837326 0,-2.653336c0,-0.815994 0,-1.815994 0,-2.725327c0,-0.94133 0,-1.722839 0,-2.513336c0,-1.118332 0,-1.952332 0,-2.933334c0,-0.870834 0,-1.589325 0,-2.379837c0,-1.262833 0,-1.927322 0,-2.948166c0,-0.799988 0,-1.599991 0,-2.599991c0,-0.800003 0,-1.798676 0,-2.564011c0,-1.08783 0,-1.805328 0,-2.845825c0,-0.775497 0,-1.823502 0,-2.537506c0,-0.905334 0,-1.874329 0,-2.699326c0,-0.915009 0,-1.919998 0,-2.636002c0,-0.731995 0,-1.807495 0,-2.783997c0,-0.819 0,-1.724335 0,-2.734665c0,-0.619507 0,-1.765335 0,-2.551346c0,-0.821991 0,-1.880661 0,-2.594666c0,-0.905334 0,-1.873825 0,-2.667328c0,-0.775497 0,-1.817337 0,-2.753326c0,-0.802673 0,-1.573669 0,-2.434677c0,-1.195999 0,-1.786667 0,-2.640167c0,-1.271835 0,-1.936325 0,-2.957169c0,-0.778656 0,-1.833328 0,-2.664162c0,-0.856667 0,-1.569168 0,-2.663834c0,-0.873329 0,-1.838669 0,-2.671997c0,-0.978668 -0.02956,-1.753304 0.004501,-2.657166c0.028214,-0.748657 0.228542,-1.765907 0.606167,-2.506836c0.431496,-0.846626 1.083042,-1.419189 1.303997,-2.32c0.206566,-0.842148 0.085335,-1.879997 0.085335,-2.716003c0,-0.899994 0,-1.799995 0,-2.599998c0,-0.900002 0,-1.799995 0,-2.720833c0,-0.9645 0,-1.689835 0,-2.679169c0,-0.799995 0,-1.799995 0,-2.589333c0,-1.043999 0,-1.799995 0,-2.710663c0,-0.900002 0,-1.800003 0,-2.700005c0,-0.899994 -0.037197,-1.800858 0,-2.599998c0.042713,-0.917641 0.801334,-1.199326 1.757168,-1.199997c0.899998,-0.000626 1.647331,0 2.641499,0c0.944168,0 1.848667,0 2.768002,0c0.854164,0 1.833336,0 2.622665,0c0.725334,0 1.800003,0 2.610664,0c0.900002,0 1.800003,0 2.700005,0c0.900002,0 1.830414,0.393051 2.614662,-0.085335c0.803619,-0.490196 1.256737,-1.270386 1.285339,-2.11467c0.030464,-0.899315 0,-1.799995 0,-2.601334c0,-0.898666 -0.025093,-1.835075 0.001328,-2.683998c0.028648,-0.920418 0.184952,-1.728745 0.519501,-2.514664c0.434311,-1.020287 0.745667,-1.614426 1.179169,-2.342834c0.553833,-0.930595 1.074493,-1.526817 1.274666,-2.493164c0.156815,-0.757034 0.333374,-1.784363 0.729836,-2.506836c0.441437,-0.804436 1.015488,-1.387321 1.242828,-2.309837c0.209152,-0.848686 0.669853,-1.625458 0.967339,-2.547333c0.27758,-0.860207 0.592522,-1.409004 1.028168,-2.157166c0.424469,-0.728951 0.668251,-1.383438 1.021164,-2.0895c0.391396,-0.783035 0.036003,-1.727997 0.036003,-2.667999c0,-0.985332 0,-1.88533 0,-2.685333c0,-0.899998 0.200211,-1.600796 0.715996,-2.283997c0.464561,-0.615349 0.284004,-1.616001 0.341164,-2.558834l0.658836,-0.441166" fill="none" id="svg_8" stroke="#ffffff" stroke-dasharray="null" stroke-linecap="round" stroke-linejoin="null" stroke-width="8"/>
  <path d="m102.505692,139.053978c1,0 1.917328,0 2.723328,0c0.800003,0 1.919502,0 2.586502,0c0.710999,0 1.442009,-0.00457 2.868668,0.000168c0.664337,0.002205 1.613449,0.010231 2.220169,0.085167c1.208679,0.149277 2.10331,0.429161 2.701332,0.619164c1.204277,0.382622 1.797752,0.615601 2.736,0.859497c0.645142,0.167702 1.684311,0.322342 2.407661,0.383339c1.058121,0.089226 1.740242,0.002434 2.889336,0.405334c0.785019,0.275246 1.52742,0.615005 2.328667,0.642822c1.221611,0.042419 1.763664,0.004501 2.58567,0.004501c1.268661,0 1.952675,-0.003326 3.119331,0c0.790504,0.002258 1.358032,-0.019348 2.234665,0.085342c1.203835,0.143768 1.774323,0.351257 2.584335,0.561996c1.200264,0.312256 1.896996,0.35199 2.839668,0.352661c1.007996,0.000717 1.870163,0 2.774666,0c0.879166,0 1.842995,0 2.62133,0c0.9785,0 1.758179,-0.026138 2.757507,0.000168c0.683197,0.01799 1.563034,0.224548 2.541992,0.499832c0.530487,0.14917 1.7966,0.388947 2.4375,0.5c1.02858,0.178238 1.69104,0.800751 2.5625,0.979172c0.943817,0.193237 1.653839,0.020828 2.726501,0.020828c0.919327,0 1.773499,0 2.75267,0c0.789337,0 1.622192,-0.425644 2.553329,0.036011c0.707184,0.350616 1.248001,0.963318 2.146667,0.963989c0.899994,0.000671 1.668442,0.144104 2.352661,0.647339c0.666214,0.48999 1.583344,0.352661 2.431335,0.352661c0.863342,0 1.87619,0.00174 2.516006,0.5c0.617386,0.480804 1.5,0.5 2.399994,0.5c0.900009,0 1.8573,-0.163681 2.699997,0.221344c0.669296,0.305801 1.499954,0.773315 2.400009,0.778656c0.899979,0.005325 1.800003,0 2.698669,0c0.853989,0 1.8022,-0.037201 2.601334,0c0.917633,0.042725 1.366653,0.833344 2.199997,1l0.878662,0.221344l0.406662,0.693329l0.914673,0.085327" fill="none" fill-opacity="0.2" id="svg_11" stroke="#ffffff" stroke-dasharray="null" stroke-linecap="round" stroke-linejoin="null" stroke-width="8"/>
  <path d="m100.505692,158.05397c0.886665,0 1.825333,0 2.833328,0c0.792,0 1.662537,-0.059341 2.449333,0.072006c1.067902,0.178268 1.687622,0.48465 2.346672,0.778671c0.958481,0.427612 1.859268,1.02655 2.73233,1.149323c0.950317,0.133636 1.679474,-0.123657 2.616997,0.221344c0.829132,0.305115 1.685684,0.666458 2.368668,0.831329c0.918045,0.221619 1.746552,0.886444 2.652672,0.947327c0.798195,0.053635 1.697029,0.062958 2.41066,0.425339c0.90696,0.460556 1.763954,0.569321 2.704002,0.574661c0.885323,0.00502 1.685333,0 2.585335,0c0.900002,0 1.869576,-0.111435 2.599998,0.357178c0.799919,0.513184 1.233772,1.383972 2.099998,1.606827c0.87233,0.224426 1.823257,-0.060364 2.766663,0.202667c0.681641,0.190048 1.367599,0.493454 2.3125,0.833328c0.844559,0.303772 1.679062,0.89682 2.541672,0.979172c0.97496,0.093079 1.768555,0.012985 2.493835,0.020828c0.964661,0.010422 1.710632,0.489395 2.585495,0.878677c0.741486,0.329926 1.709335,0.587601 2.415833,0.837326c0.842682,0.297852 1.805344,0.283997 2.658676,0.283997c0.940002,0 1.825333,0 2.625336,0c0.899994,0 1.799988,0 2.699997,0c0.899994,0 1.800003,0 2.699997,0c0.899994,0 1.800003,0 2.600006,0c0.899994,0 1.799988,0 2.699997,0c0.899994,0 1.800003,0 2.699997,0c0.899994,0 1.800003,0 2.600006,0c0.899994,0 1.842819,0 2.720825,0c0.879166,0 1.779175,0 2.679169,0c0.899994,0 1.800003,0 2.600006,0c0.899994,0 1.799988,0 2.699997,0c0.979156,0 1.857162,0 2.699997,0c0.899994,0 1.800003,0 2.600006,0l0.899994,0l0.899994,0l0.900009,0" fill="none" id="svg_12" stroke="#ffffff" stroke-dasharray="null" stroke-linecap="round" stroke-linejoin="null" stroke-width="8"/>
  <path d="m100.505692,179.05397c1,0 1.915993,-0.000076 2.682663,0c0.860001,0.000092 1.82621,-0.045334 2.549332,0.085342c0.987442,0.178436 1.615715,0.638855 2.82,0.830658c0.61895,0.098572 1.607903,0.042374 2.448006,0.250671c0.991653,0.24588 1.644684,0.873169 2.325333,1.222672c0.97982,0.503128 1.814865,0.590988 2.658661,0.894669c0.705063,0.253754 1.702545,0.452621 2.516006,0.88266c0.740982,0.391724 0.864273,1.546829 1.610664,1.822662c0.834259,0.308304 1.751816,0.053146 2.414665,0.585342c0.598518,0.480545 1.445633,0.741989 2.321999,1.072662c0.883606,0.333405 1.704514,0.659943 2.409836,1c0.8507,0.410156 1.632645,0.305298 2.606834,0.778c0.777573,0.377289 1.306747,1.120621 1.993164,1.517502c0.731323,0.422852 1.742828,0.057159 2.642838,0.057159c0.88533,0 1.825333,0 2.515991,0c1.073334,0 1.901367,0.089493 2.509338,0.574677c0.624496,0.498367 1.617493,0.425323 2.495499,0.425323c0.879166,0 1.783661,0 2.645828,0c0.833344,0 1.824677,-0.093506 2.586014,0.057175c0.929245,0.183899 1.562332,0.723846 2.611328,0.90683c0.918518,0.160217 1.376816,0.69603 1.96933,1.035995c0.73967,0.424393 1.749374,0.349838 2.419342,0.647339c0.865738,0.384445 1.763321,0.35199 2.726486,0.352661c0.920837,0.000641 1.820847,0 2.72084,0c0.899826,0 1.74733,0 2.601334,0c0.898666,0 1.79866,0 2.698669,0c0.804489,0 1.821335,0 2.5,0c0.9785,0 2,0 2.800003,0c0.842819,0 1.720825,0 2.699997,0c0.899994,0 1.850067,0.131653 2.599991,-0.221329c0.775528,-0.365036 1.499954,-0.773331 2.400009,-0.778671c0.899979,-0.005325 1.800003,0 2.698669,0c0.967987,0 1.801331,0 2.601334,0l0.914658,0l0.895996,0" fill="none" id="svg_13" stroke="#ffffff" stroke-dasharray="null" stroke-linecap="round" stroke-linejoin="null" stroke-width="8"/>
 </g>
</svg>